<?xml version="1.0" encoding="UTF-8"?>
<svg enable-background="new 0 0 2633.37 1579.031" version="1.1" viewBox="0 0 2633.37 1579.031" xmlns="http://www.w3.org/2000/svg">
 <path d="m908.96 62.139c42.637-18.496 89.015-28.914 135.59-28.398 24.445-0.383 49.208 1.824 72.582 9.387 41.883 12.467 79.113 37.917 108.86 69.634 23.216 24.815 42.954 52.923 58.105 83.344 24.908 48.785 37.031 103.24 40.839 157.63 5.698 0 11.396-0.278 17.108-0.397-1.666-33.316-2.737-66.712-1.547-100.07 0.595-13.393 1.243-26.865 3.807-40.059 3.861-17.636 11.555-34.136 19.95-50.014 8.99-16.685 19.144-32.708 29.667-48.454 2.975-4.429 5.791-9.109 9.995-12.52 21.325-17.319 44.237-32.986 69.369-44.29 37.031-16.936 77.963-24.749 118.6-24.181 105.16-2.697 209.76 49.234 272.08 133.83 27.79 37.203 46.524 80.766 56.36 126.06 4.469 20.452 7.377 41.249 8.964 62.124 62.746 3.715 125.52 8.303 187.77 17.266 34.691 4.521 69.197 10.418 103.62 16.618 29.191 5.896 58.542 11.819 86.596 22.052 20.995 7.932 42.095 18.297 56.955 35.63 16.672 20.545 23.613 47.198 25.992 73.111 27.314 3.464 54.959 7.033 80.845 16.949 12.136 4.244 24.207 8.752 35.656 14.649 11.251 6.187 23.414 11.066 32.973 19.91 15.442 11.833 29.152 26.111 39.107 42.901 12.877 21.59 18.721 47.026 17.769 72.066-0.555 14.609-4.125 28.914-8.792 42.716-3.9 11.912-12.48 21.563-21.55 29.892-2.869 2.79-6.941 5.037-7.536 9.36-2.327 9.545-4.508 19.144-5.566 28.927-2.882 14.887-6.491 29.707-11.74 43.946-13.511 33.634-33.369 64.821-58.753 90.734-1.454 1.586-3.266 3.266-2.975 5.645-0.714 19.276-1.111 38.631-3.596 57.788-1.335 7.932-1.851 16.751-7.298 23.163-2.419 2.433-5.579 5.315-9.307 4.469-6.478-1.824-12.057-6.412-15.508-12.137-2.71-4.68-6.385-8.712-8.95-13.472-3.517-6.412-6.029-13.313-8.355-20.228-14.715 8.858-30.844 15.058-47.502 19.091-3.57 3.622-5.777 8.316-8.686 12.441-2.856 4.733-7.391 9.083-7.126 15.045-0.066 16.143-0.066 32.285 0.04 48.441 1.044 33.607 0.515 67.307-3.213 100.76-1.296 8.937-2.34 18.298-6.954 26.243-2.446 4.191-7.483 7.536-12.454 6.108-8.078-2.485-14.331-8.752-18.628-15.825-11.105-12.044-16.896-27.777-21.55-43.192-3.226-10.246-3.927-21.047-3.12-31.703-32.179 39.728-67.703 77.553-110.29 106.26-0.198 21.008 0.384 42.016 0.701 63.023 0.701 14.12-0.463 28.24-1.084 42.346-1.229 18.165-2.327 36.463-6.478 54.258-1.996 7.589-4.72 15.614-10.643 21.061-5.778 4.495-12.322-1.031-17.65-3.543-6.756-3.081-11.026-9.202-15.561-14.741-8.342-7.06-14.106-16.473-18.958-26.111-6.121-12.348-12.176-25.08-13.736-38.935-1.124-7.932-0.251-15.944 0.978-23.797-21.087 9.955-41.143 21.933-60.935 34.215-13.591 7.747-26.917 16.658-42.253 20.545-6.557 1.653-12.124-6.293-8.937-12.057 4.112-7.562 9.929-14.027 14.543-21.285 7.523-11.727 15.151-23.44 21.325-35.934-61.966 5.83-124.35-6.042-182.78-26.389-20.571-7.615-41.963-14.318-59.877-27.393-30.064-21.259-52.103-51.733-69.832-83.568-0.965-1.097-1.745-3.9-3.636-2.842-58.343 18.773-118.19 32.629-178.64 42.61-21.338 3.398-42.637 7.139-64.121 9.532-31.373 0.701-62.746 1.454-94.105 2.538-2.657 27.42-2.948 55.183-8.964 82.167-5.368 25.397-14.397 50.226-28.425 72.159-23.308 36.833-62.045 62.124-103.64 73.64-27.129 8.078-54.126 16.579-80.713 26.27-28.306 9.704-56.492 19.699-84.296 30.738-23.083 9.572-46.101 19.342-69.369 28.464-73.428 28.319-152.9 40.627-231.44 36.106-16.975-0.635-33.858-2.71-50.754-4.403-16.314-1.481-32.457-4.402-48.547-7.443-14.569-3.12-29.297-5.87-43.457-10.603-13.763-4.363-27.592-8.474-41.302-12.943-32.087-12.375-62.547-29.271-89.253-50.993-5.368 11.172-10.299 22.74-17.941 32.629-3.556 4.773-8.752 8.038-11.991 13.089-4.799 7.02-12.666 10.986-20.267 14.239-3.451 1.507-7.774 0.912-10.299-1.983-7.919-8.17-10.206-19.792-11.899-30.619-3.451-23.665-4.402-47.608-5.301-71.472-0.502-11.37 0.886-22.753 0.026-34.096-2.591-5.037-7.139-8.818-10.497-13.353-18.866-22.753-35.855-47.132-49.485-73.388-4.138-7.523-7.232-15.561-11.277-23.097-4.35-3.504-10.233-4.521-15.204-6.994-4.521 13.551-9.81 27.393-19.553 38.115-3.398 4.098-5.711 9.175-10.206 12.282-3.702 2.565-7.523 5.368-11.978 6.372-5.725 0.991-9.466-4.535-11.621-9.003-3.979-9.255-4.839-19.448-6.055-29.337-1.56-16.433-2.472-32.933-2.618-49.432-32.444-18.615-63.737-39.385-92.334-63.513-3.173-3.199-8.514-1.071-11.608-4.297-4.495-4.27-4.971-11.224-9.929-15.125-32.668-31.082-61.093-67.598-78.201-109.6-10.352-25.357-16.354-52.526-16.923-79.933-0.291-4.997 0.344-10.286-2.023-14.873-9.374-20.122-17.068-41.262-20.175-63.314-3.371-22.145 0.053-44.858 7.483-65.839 8.356-23.15 22.132-43.906 37.626-62.852 29.112-35.484 62.64-67.029 96.935-97.397 18.615-16.341 37.521-32.325 56.783-47.872-0.886-18.403-0.331-36.859 1.639-55.17 1.415-12.031 2.274-24.247 6.267-35.775 6.253-22.938 20.003-43.258 37.071-59.573 11.158-10.669 23.586-19.937 36.621-28.173 4.138-2.459 7.404-6.399 12.137-7.774 5.328-1.772 10.484-4.165 16.063-5.077 68.087-11.661 136.15-23.44 204.22-35.167 12.732-2.023 25.371-4.641 38.155-6.359 40.826-3.001 81.757-4.27 122.68-5.024-0.119-26.798 2.882-53.676 9.598-79.642 6.544-26.045 17.081-50.966 30.143-74.38 10.299-18.39 22.647-35.511 34.255-53.068 5.209-7.575 9.929-15.508 15.468-22.859 29.142-33.884 66.9-59.651 107.83-77.235m111.09-10.418c-10.352 0.939-20.704 1.97-30.95 3.768-44.369 8.395-87.31 25.252-124.94 50.331-18.945 13.287-36.555 28.729-51.27 46.616-20.69 32.007-44.475 62.389-59.758 97.556-13.789 31.042-21.999 64.597-23.731 98.534-1.468 23.533-0.04 47.344 5.42 70.334 6.901 28.081 20.267 54.351 37.613 77.408 12.97 17.253 28.663 32.259 45.241 45.995 27.658 22.872 59.044 41.103 92.4 54.324 37.93 15.482 78.28 24.71 119.04 28.464 38.896 3.517 78.664 1.005 116.14-10.484 73.494-22.251 134.16-83.515 154.47-157.75 8.422-29.139 10.391-59.758 8.778-89.928-1.838-39.913-8.065-79.84-20.928-117.76-11.78-35.352-29.139-68.893-51.786-98.521-25.913-34.625-59.427-64.398-99.248-81.916-12.732-5.791-26.256-9.44-39.715-13.062-25.198-5.393-51.177-5.511-76.785-3.912m543.39 0.291c-22.74 2.036-45.268 6.994-66.738 14.781-29.985 11.291-57.167 28.874-81.942 48.996-3.464 2.816-5.526 6.875-8.078 10.444-16.592 25.252-33.448 50.966-42.69 79.986-4.019 12.123-4.773 24.961-5.738 37.613-2.115 36.582-0.793 73.256 0.992 109.84 1.19 24.472 8.329 48.507 19.977 70.03 22.951 42.187 59.652 75.054 98.746 102.05 23.625 15.852 49.499 28.2 76.337 37.547 32.126 11.039 65.839 16.817 99.658 19.13 34.149 1.93 68.55 0.383 102.21-5.844 26.64-4.918 52.923-13.353 76.244-27.38 18.39-10.854 34.916-25.133 47.317-42.584 13.181-18.324 22.013-39.543 27.288-61.424 7.84-33.277 7.126-67.875 3.874-101.69-5.54-53.835-21.484-107.38-51.773-152.62-28.478-43.126-68.06-78.73-113.46-103.31-25.675-13.353-53.042-23.52-81.347-29.641-32.975-7.76-67.23-8.169-100.88-5.922m-237.63 318.92c1.243 25.463-0.344 51.125-5.804 76.059-4.402 22.383-12.851 43.695-23.044 64.015-4.283 5.976-7.39 12.718-11.647 18.721-3.041 4.786-7.047 8.99-9.387 14.199-6.32 6.121-11.357 13.406-17.517 19.672-18.747 19.633-40.654 36.212-64.478 49.194-49.922 27.063-108.41 34.242-164.39 29.641-76.892-6.584-153.33-32.536-214.48-80.382-19.752-15.296-38.287-32.378-53.716-52.09-12.441-15.667-22.713-32.986-31.082-51.138-9.598-23.004-15.984-47.423-17.742-72.331-39.173 0.621-78.333 2.115-117.44 4.574-17.716 2.3-35.22 5.923-52.857 8.779-64.649 11.105-129.3 22.303-193.95 33.382-2.115 0.41-4.204 0.992-6.161 1.917-17.742 9.188-34.255 20.862-48.613 34.784-17.332 16.949-30.844 38.605-35.154 62.693-2.869 20.109-4.997 40.403-4.363 60.749 27.473-21.563 54.152-44.104 82.22-64.914 4.442-2.961 8.131-8.554 14.107-7.893 5.064-0.066 8.726 5.526 7.377 10.246-0.661 3.649-4.019 5.764-6.386 8.289-1.97-0.212-3.874 1.851-4.72 3.504-15.746 11.555-31.003 23.771-46.524 35.643-20.082 16.552-40.905 32.179-60.538 49.274-38.578 31.664-76.376 64.464-110.92 100.56-19.064 19.91-37.666 40.574-52.367 64.002-9.109 15.217-16.711 31.73-19.752 49.3-5.791 25.318-0.516 51.587 8.567 75.451l1.031-0.396c3.728 0.066 8.593-0.74 10.881 3.027 2.671 4.363 1.018 9.81 1.137 14.649-3.979 50.464 11.132 101.42 39.041 143.33 26.296 39.874 62.045 72.503 100.13 100.87 38.195 27.671 79.576 50.993 122.99 69.396 0.674-3.649 1.441-7.271 2.155-10.894 4.059-2.512 8.184-5.711 13.287-5.024 4.839-0.648 7.351 3.9 9.836 7.166-1.375 4.165-3.821 7.813-7.364 10.444 4.561 18.06 14.318 34.202 22.951 50.53 22.515 38.671 52.169 72.622 83.317 104.52 16.883 16.605 32.973 34.242 52.063 48.388 17.557 13.26 36.926 23.943 57.008 32.854 12.956 6.624 27.129 10.14 40.905 14.569 14.741 4.35 29.178 9.929 44.382 12.52 14.781 3.16 29.694 5.632 44.594 8.131 49.075 6.399 98.852 10.035 148.2 4.667 39.98-3.213 79.245-12.441 117.43-24.472 31.994-10.286 62.309-24.908 93.471-37.349 26.309-10.114 52.87-19.58 79.391-29.139 26.931-9.982 54.536-17.954 81.942-26.481 32.245-8.937 63.341-25.04 85.737-50.358 28.398-31.426 40.667-73.851 44.898-115.18 2.472-35.299 6.015-70.506 8.58-105.79 2.367-30.566 4.416-61.159 6.835-91.726 2.327-28.147 1.349-56.572-2.922-84.494-4.204-27.274-13.3-53.69-25.78-78.254-16.288 14.754-31.822 30.328-47.767 45.453-15.336 14.675-30.09 29.985-43.562 46.392-17.385 21.021-33.687 43.126-46.286 67.386-10.603 21.18-23.652 41.05-37.904 59.943-11.489 14.384-23.625 28.279-36.661 41.288-32.1 30.976-69.832 55.831-110.09 74.909-19.263 9.466-39.596 16.486-59.837 23.546-29.35 9.783-59.718 16.592-90.443 20.241-14.477 1.864-29.072 1.468-43.628 1.388-19.461-0.687-38.605-4.627-57.775-7.747-28.332-5.05-56.717-9.889-84.917-15.68-14.992-3.107-29.654-7.562-44.395-11.608-2.195-2.618-5.791-4.535-6.082-8.263-0.595-3.57 1.177-7.47 4.627-8.831 4.019-1.772 8.197 0.489 11.991 1.798 19.673 6.901 40.191 10.867 60.657 14.583 27.089 4.746 54.113 10.088 81.347 13.842 36.701 8.065 75.094 5.619 111.64-2.3 12.454-2.433 24.921-5.183 36.886-9.479 18.892-4.521 36.78-12.388 54.985-19.038 63.605-27.063 122.41-68.801 162.75-125.54 13.948-18.073 24.802-38.327 35.67-58.343 6.809-12.256 14.688-23.863 22.515-35.471-4.654-1.349-9.294-3.742-14.252-3.133-29.734 3.371-59.308 9.096-87.64 18.826-15.31 5.209-31.346 7.747-47.41 9.03-29.469 1.983-59.044 0.661-88.447-1.6-61.331-5.302-122.46-14.054-182.35-28.451-56.016-13.75-110.79-33.277-161.89-60.154-22.964-12.956-45.902-26.534-65.773-43.985-8.752-12.295-16.169-25.556-25.384-37.56-11.462 12.176-20.611 26.283-29.905 40.125-15.495 24.022-30.725 48.282-44.25 73.481-24.895 47.291-43.959 97.767-55.144 150.07-1.864 8.263-3.49 16.579-5.196 24.881-0.82 3.199-1.415 6.954-4.244 9.07-2.499 1.56-5.658 1.957-8.514 1.322-2.512-1.481-4.323-3.9-5.645-6.439 2.01-13.353 5.923-26.322 8.408-39.57 2.393-8.884 4.72-17.782 7.02-26.68 2.922-10.101 6.32-20.082 9.175-30.17-1.375-3.517-3.86-6.412-5.857-9.545-23.93-35.894-47.529-72.066-68.907-109.55-8.99-14.926-18.985-29.258-30.143-42.637-15.627-17.941-34.149-34.374-56.876-42.492-6.095-1.957-12.388-3.252-18.773-3.57-3.755-0.436-7.734-0.238-11.224-1.838-5.487-2.935-5.394-11.727-0.37-15.045 5.473-1.587 11.264-0.37 16.843-0.119 8.514 0.45 16.394 4.006 24.67 5.645l0.238 0.582c6.663 3.213 13.472 6.201 19.725 10.206-1.639-3.371-4.522-7.258-2.446-11.079 2.803-4.614 7.694-7.364 11.383-11.185 25.437-25.252 41.341-57.88 57.233-89.544 12.983-26.256 25.543-52.738 37.547-79.457 5.275-10.59 9.651-21.616 14.715-32.312 2.327-6.597 13.921-6.28 15.812 0.489 1.679 4.442-1.124 8.726-2.776 12.705-9.559 21.576-19.17 43.139-29.377 64.411-1.044 2.459-2.538 4.812-2.961 7.496-3.834 6.174-6.558 12.93-9.757 19.421-3.279 7.285-7.523 14.133-10.18 21.695-3.028 3.345-4.336 7.919-6.637 11.78-7.853 15.667-17.094 30.54-26.627 45.228-4.773 6.875-10.233 13.274-14.887 20.241 0.37 1.772 1.52 3.226 2.499 4.733 10.392 14.212 20.876 28.358 32.126 41.91 21.497 28.121 48.11 51.812 75.768 73.693 8.752 6.769 17.346 13.816 26.732 19.686 0.833-1.018 1.586-2.076 2.287-3.173 14.887-27.38 31.532-53.782 48.322-80.038 9.929-14.027 18.747-29.324 32.193-40.363 4.918-3.874 13.921-5.857 17.954 0.211 7.893 10.299 15.058 21.153 22.039 32.1 3.067 4.733 5.645 10.087 10.484 13.313 22.66 16.261 45.863 32.034 71.141 43.985 45.85 22.793 94.674 39.12 144.3 51.429 34.215 7.761 68.655 14.688 103.43 19.474 27.645 3.688 55.369 6.743 83.172 8.99 33.938 2.208 68.378 3.927 102.01-2.353 13.393-2.3 25.939-7.708 39.028-11.158 23.969-6.624 48.56-10.947 73.269-13.591 8.739-1.018 16.592 3.847 25.014 5.169 2.3-1.282 3.742-3.636 5.421-5.592 31.479-39.927 70.797-72.555 106.35-108.64-11.938 0.463-23.612 3.12-35.286 5.341-24.445 4.892-48.309 12.56-71.075 22.674-21.021 9.281-40.72 21.92-57.153 38.062-1.917 1.639-3.953 3.583-6.584 3.887-5.645 0.846-11.172-4.561-10.682-10.206 0.185-11.978 1.692-23.903 2.922-35.802 6.015-55.183 15.971-109.97 30.95-163.44 7.919-27.988 17.372-55.712 30.699-81.638 10.458-20.135 23.705-39.451 42.108-53.121 3.398-2.737 7.562-5.381 12.137-3.993 3.953 1.943 6.597 5.711 9.929 8.514 30.196 27.486 67.109 46.841 105.71 59.612 24.181 8.223 49.631 13.089 75.213 13.194 15.891 0.106 31.796 0.344 47.687-0.172 8.342 0.04 15.468-4.852 22.184-9.215 10.431-7.007 20.122-15.019 29.786-23.044 3.966-3.715 11.899-3.028 14.001 2.419 1.917 3.887 0.225 8.58-3.094 11.119-10.193 8.858-21.1 16.87-32.087 24.71-8.62 5.288-17.769 10.748-28.147 11.198-14.397 0.74-28.821-0.159-43.219 0.489-3.821 13.538-10.616 26.19-12.89 40.178-0.74 6.002-1.243 12.071-2.776 17.954 14.04-2.909 27.817-7.166 41.051-12.705 4.191-1.6 8.911-3.133 13.353-1.56 3.384 3.332 4.336 8.263 6.055 12.547 10.801 30.923 21.986 61.701 32.801 92.625 3.477 11 6.174 22.25 8.977 33.448 1.507 5.698 1.864 11.7 3.979 17.24 7.02 5.659 15.825 8.686 23.401 13.591 9.836 5.063 18.245 12.771 28.782 16.473 2.366 4.218 7.774 5.473 10.418 9.519 1.534 4.231 0.185 10.114-4.482 11.687-6.941 1.864-12.322-4.006-17.941-6.954-13.168-8.131-26.151-16.592-39.913-23.678-24.498-13.578-51.151-22.74-78.069-30.156-30.236-7.747-61.265-12.877-92.532-12.93-15.058 0.093-30.156-0.383-45.175 0.992 6.571 9.916 11.436 20.809 16.235 31.664 8.21 19.554 14.754 39.874 18.43 60.802 6.068 33.554 6.214 67.902 3.556 101.8-1.15 8.765-1.362 17.623-2.168 26.428-2.089 32.325-5.077 64.597-7.139 96.934 29.231-0.899 58.462-1.864 87.707-2.3 6.161-0.145 12.216-1.415 18.324-2.208 75.305-10.193 150-25.886 222.47-48.93-5.447-12.163-11.383-24.088-16.367-36.436-11.462-27.645-20.981-56.056-29.39-84.758-6.531-22.145-11.991-44.594-17.015-67.122-13.194-60.723-23.427-122.2-27.618-184.24-2.287-30.051-4.218-60.247-2.882-90.39 0.939-14.847 2.129-30.712 11.132-43.179 6.98-2.671 12.758-10.325 20.915-8.303 4.297 2.459 6.016 7.549 8.567 11.568 29.125 53.002 55.131 107.64 84.137 160.71 5.407 9.426 10.061 19.355 16.619 28.094 3.08-13.049 6.584-26.005 11.238-38.591 8.673-25.186 21.986-48.467 36.542-70.665 14.331-21.497 29.972-42.082 46.22-62.151 14.226-17.822 28.94-35.286 44.594-51.865 15.296-16.116 31.637-31.598 50.781-43.086 8.541-5.447 18.76-7.086 28.649-8.197 15.852-0.965 32.259-1.335 47.423 4.178 33.277 24.458 66.262 49.3 99.341 74.036 11.7 8.673 23.189 17.636 35.088 26.058 11.608 9.043 23.216 18.245 35.788 25.939l0.212 1.044c11.555 7.655 22.621 16.063 34.057 23.903 3.318 2.089 6.227 5.196 10.154 6.148 3.979 4.363 9.215 7.232 13.988 10.643 8.541 6.015 17.227 11.833 25.992 17.557 1.507-1.917 3.041-3.821 4.601-5.711-12.282-5.46-24.895-10.497-35.934-18.311-2.168-1.388-4.112-3.279-6.689-3.741-6.306-6.954-14.041-12.877-18.126-21.563-6.822-11.793-4.693-25.873-7.589-38.724-1.705-7.073-1.996-16.063-8.844-20.294-2.234-1.772-5.196-3.53-5.315-6.69-0.635-3.834 1.243-8.501 5.341-9.4 4.336-1.653 8.329 1.362 12.507 2.01 3.173 4.878 6.994 9.453 9.056 14.966 5.011 12.322 5.606 25.767 7.1 38.816 1.758 13.657 12.546 23.824 23.427 31.135 21.973 14.662 47.873 21.523 72.966 28.755 3.966 0.74 8.435 3.147 12.295 0.78 10.272-5.764 21.285-10.008 31.822-15.257 13.036-5.46 25.728-11.846 38.922-17.002 10.603-4.773 22.277-7.602 31.704-14.688 11.185-8.051 20.492-18.403 28.94-29.218 3.252-4.627 11.489-4.191 14.146 0.873 1.838 3.12 0.344 6.862 0.423 10.273-5.222 4.323-9.109 9.942-13.802 14.768-7.351 7.655-15.125 15.058-24.22 20.611-7.457 4.68-15.958 7.139-23.982 10.577-23.123 9.492-46.061 19.514-68.47 30.593-12.507 6.425-23.203 15.957-31.941 26.904 11.952 7.113 24.101 14.067 37.124 19.051 11.409 4.508 22.621 9.585 34.189 13.71 4.191 1.481 8.488 3.292 11.423 6.795 5.434 6.28 7.747 14.556 9.083 22.594 2.988 18.403 1.52 37.124-0.211 55.567-0.476 3.133-0.569 6.518-2.261 9.307-1.996 1.944-4.654 2.988-6.994 4.442-3.675-1.719-8.884-3.649-8.541-8.62 1.468-18.417 4.244-36.992 1.851-55.461-0.833-5.341-1.877-11.013-5.447-15.244-3.966-3.675-9.625-4.535-14.397-6.729-15.653-6.769-31.915-12.256-46.788-20.664-25.014-13.684-48.917-29.258-72.622-45.056-39.543-26.812-78.558-54.403-117.18-82.511-42.042-31.545-83.793-63.473-125.99-94.793-6.491-4.984-15.177-5.064-22.978-5.632-14.49-0.053-30.632-0.661-42.809 8.527-4.508 3.054-6.703 8.21-10.339 12.071-2.816 1.917-6.571 1.084-9.638 2.327-1.891 1.137-3.477 2.671-5.09 4.138-21.88 20.069-41.434 42.492-60.036 65.588-28.147 34.81-55.792 70.718-74.882 111.46-10.749 23.692-18.007 48.93-21.894 74.644-0.582 2.168 0.754 4.112 2.089 5.738 12.467 19.699 26.323 38.512 40.984 56.638 12.11 15.085 25.688 28.953 40.218 41.698 20.809 17.914 44.21 33.713 70.758 41.632 27.261 7.932 55.646 10.696 83.82 13.247 11.859 1.243 23.824 0.952 35.736 0.78 7.02-0.106 13.948-2.433 20.981-1.56 5.566 0.965 8.131 8.408 4.68 12.785-3.199 4.958-9.81 4.416-14.913 5.249-34.096 2.948-68.219-1.772-102-6.068-6.016-1.666-12.203-2.591-18.271-3.979-23.414-5.037-45.651-14.94-65.39-28.451-37.481-25.437-67.717-59.996-93.801-96.697-30.91-43.721-56.281-91.038-80.62-138.63-4.892-8.977-8.646-18.562-14.226-27.129-0.304-1.97-1.229-3.755-2.049-5.513-8.157-15.693-16.156-31.465-24.379-47.106-4.786-8.21-8.461-17.094-14.305-24.643-2.036 3.49-3.9 7.139-4.667 11.145-4.019 18.773-2.763 38.089-2.856 57.153 1.587 46.193 5.593 92.307 12.018 138.08 3.067 18.826 5.381 37.785 9.492 56.426 5.936 30.395 12.375 60.697 20.638 90.562 12.983 46.894 28.583 93.365 50.966 136.7 10.841 21.351 23.401 41.949 38.671 60.458 12.917 15.323 27.565 29.548 45.03 39.609 8.937 5.315 18.774 8.831 28.438 12.586 18.311 6.981 37.018 12.903 55.897 18.126 25.423 7.126 51.614 11.039 77.87 13.406 56.109 4.495 113.68-5.183 164.31-30.13 36.965-17.636 70.163-42.518 99.037-71.458 20.691-20.4 39.94-42.24 57.748-65.205 12.441-15.614 23.176-32.47 34.48-48.904 17.822-26.323 35.167-52.949 52.539-79.549 2.38-4.535 8.66-5.751 12.771-2.895 3.094 2.089 3.186 6.161 4.006 9.479 18.126-7.126 34.837-17.491 49.618-30.156 26.666-21.008 49.723-46.841 66.408-76.469 5.46-8.99 9.889-18.549 14.041-28.2 10.537-26.296 13.419-54.694 19.725-82.101 2.248-11.264 11.621-18.919 15.944-29.191 3.279-3.147 7.8-3.239 12.084-3.094 1.547-5.196 3.305-10.352 4.574-15.627 6.201-24.551 4.191-51.164-5.989-74.367-7.893-18.787-21.563-34.586-37.507-47.039-18.972-14.596-40.165-26.521-63.168-33.409-27.01-10.048-55.673-14.741-84.269-17.346-17.901-2.71-36.066-1.666-54.099-1.891-7.813-0.251-15.455 1.6-22.713 4.35-6.333 2.102-12.507 4.654-18.416 7.761-3.49 2.168-8.369 0.965-10.616-2.38-1.904-2.34-1.573-5.487-1.573-8.263 2.049-5.301 8.012-6.65 12.705-8.66 11.185-3.662 21.986-9.664 33.99-9.942 16.116-0.026 32.232-0.304 48.348 0.357-2.433-20.624-7.668-41.738-20.082-58.753-11.925-14.53-29.085-23.52-46.22-30.474-24.789-9.876-51.072-15.072-77.051-20.677-36.833-7.496-73.957-13.604-111.24-18.377-62.283-9.096-125.08-14.146-187.91-17.57 1.031 26.349-0.939 52.883-7.139 78.545-1.15 4.746-2.829 9.36-3.543 14.199-6.743 18.826-15.138 37.243-27.354 53.214-14.887 19.924-34.4 36.198-56.096 48.282-40.998 22.607-88.288 30.011-134.47 32.682-22.383 0.264-44.858 0.674-67.109-2.142-35.656-3.675-70.916-11.833-104.13-25.41-47.238-19.223-90.166-48.745-125.66-85.3-1.362-1.375-2.697-2.737-4.019-4.098-28.861-31.267-51.812-69.806-57.365-112.58-5.84 0.053-11.658 0.304-17.488 0.37m-79.219 260.13c-12.084 19.064-21.219 39.953-28.411 61.305 5.5 19.329 21.867 32.761 37.864 43.628 6.65-13.062 16.566-24.088 25.49-35.603 15.812-18.906 30.738-38.552 45.003-58.647-19.672-10.96-38.234-24.035-54.562-39.57-9.995 8.144-18.284 18.165-25.384 28.887m87.627 14.741c-5.077 7.285-10.431 14.384-15.706 21.537-16.367 22.29-34.956 42.849-51.27 65.178-3.001 3.041-0.132 7.232-0.211 10.854 4.402 2.234 8.435 5.169 12.969 7.126 25.939-0.476 51.891-0.608 77.831-0.833 3.451-29.139 17.716-55.355 30.897-81.056-18.628-6.425-37.19-13.313-54.51-22.806m62.601 25.12c-12.586 24.961-26.455 50.252-30.196 78.359 16.301 0.04 32.589-1.111 48.811-2.631 3.014-0.582 6.69 0.013 8.805-2.724 5.566-5.619 11.806-11.462 13.736-19.435 3.847-15.191 11.978-28.768 17.663-43.271-19.91-1.123-39.689-4.68-58.819-10.298m-186.61 46.14c-4.826 14.82-9.215 29.839-12.242 45.136 16.552-4.429 33.435-7.364 50.397-9.73-5.685-5.328-12.216-9.598-18.126-14.635-7.641-5.977-13.287-13.91-20.029-20.771m1083.6 9.307c-0.304 1.811-1.666 3.913-0.026 5.5 3.821 5.302 7.668 10.735 12.943 14.741 1.388-1.613 2.816-3.199 4.27-4.773-5.593-5.327-11.238-10.589-17.187-15.468m-844.78 32.775c-14.635 3.252-29.562 4.561-44.461 5.817-3.979 25.384-5.553 51.138-5.685 76.826 36.648 1.415 73.137 7.523 108.2 18.337 12.692 3.86 25.358 8.051 37.336 13.855-5.328-25.873-13.75-50.966-22.912-75.689-5.777-16.592-11.78-33.105-17.623-49.67-0.714-1.256-0.965-4.878-3.133-3.503-16.594 6.795-34.19 10.616-51.721 14.027m-163.59 8.355c2.935 8.554 5.764 17.372 5.526 26.547 1.335 18.707 4.416 37.256 6.135 55.937 30.606-6.452 61.966-8.898 93.219-8.051 0.079-25.622 1.573-51.297 5.368-76.641-36.714 2.036-73.494 1.785-110.25 2.208m-92.4 14.9c-8.382 39.728-13.869 80.025-17.954 120.42 32.88-26.124 72.979-41.473 113.54-50.953-1.93-21.14-5.698-42.108-6.518-63.327-0.621-7.1-3.252-13.802-5.54-20.479-28.238 1.533-56.822 4.534-83.528 14.344m-908.81 49.988c12.784 8.937 24.353 19.474 34.559 31.254 2.287-2.168 4.654-4.257 7.086-6.24-8.21-10.947-16.632-21.735-24.538-32.893-4.613 4.587-10.351 8.156-17.107 7.879m48.071 48.454c5.169 6.663 9.982 13.617 14.728 20.598 11.224 17.306 21.021 35.511 32.126 52.896 13.75 21.708 27.288 43.576 42.042 64.61 6.69-17.451 14.239-34.533 22.013-51.521-24.207-17.279-47.581-35.749-69.475-55.897-3.503-3.464-6.928-7.007-10.484-10.391-2.816-2.776-5.526-5.632-8.144-8.567-5.896-6.227-11.462-12.745-16.909-19.342-1.891 2.59-3.861 5.128-5.897 7.614m2114.9 82.51c-1.904 1.349-3.807 2.684-5.685 4.032 1.203 3.927 2.472 7.866 4.019 11.714 2.261 7.364 5.605 14.926 12.784 18.707 2.102-15.138 3.239-30.408 3.53-45.691-4.877 3.755-9.65 7.642-14.648 11.238m-113.64 102.78c-5.817 6.597-10.616 14.08-15.257 21.51 0.767 3.067 2.684 5.83 2.909 9.043-0.621 2.869-2.063 5.473-3.133 8.197-3.503 8.012-4.574 16.976-3.609 25.635 1.11 11.476 6.372 21.907 10.762 32.391 1.679 4.865 3.913 10.101 8.501 12.917 3.583 2.168 5.513 6.121 6.69 10.021 3.239-14.49 4.098-29.377 5.063-44.157 0.661-14.992 1.811-30.011 1.031-45.017 0.04-16.777-0.661-33.541-0.331-50.318-4.31 6.504-9.48 12.572-12.626 19.778m-182.34 177.2c-10.233 4.892-20.294 10.18-30.831 14.384-22.687 9.506-46.616 15.72-70.784 20.043-5.857 11.925-12.626 23.361-19.302 34.85 2.446 0.489 5.209 1.626 7.523 0 21.907-12.745 43.602-26.019 66.844-36.278 6.002-2.486 11.991-6.148 18.734-5.777 3.384-0.093 5.883 3.08 6.214 6.253 0.727 4.574-2.34 8.461-4.032 12.454-6.967 14.199-5.791 31.188 0.278 45.493 3.821 8.673 7.232 17.702 12.956 25.37 1.944 6.2 8.157 8.765 13.049 12.15 2.697 4.284 4.257 9.572 9.413 11.714 5.42-17.293 6.518-35.537 7.972-53.491 0.833-15.336 2.168-30.712 1.441-46.088-0.317-17.227-0.582-34.466-0.806-51.693-6.188 3.596-12.428 7.113-18.669 10.616m-1864.5-1.507c0.568 18.919 1.468 37.957 5.249 56.558 0.965-2.75 2.102-5.487 4.046-7.668 2.168-2.261 5.328-3.371 7.139-5.976 2.221-3.305 4.085-6.928 5.011-10.788 2.961-5.711 5.037-11.793 7.43-17.729-3.781-1.97-7.536-3.993-11.37-5.857-5.923-2.67-11.582-5.896-17.505-8.54m148.36 157.14c-0.899 16.486 0.688 32.999 1.507 49.485 1.428 17.134 2.155 34.651 7.761 51.085 4.945-2.261 6.809-7.192 9.175-11.621 5.05-3.596 11.542-6.24 13.512-12.758 6.267-8.871 10.815-19.011 14.186-29.271-2.406-3.305-5.619-5.857-8.527-8.673-5.513-5.13-10.259-11.119-16.486-15.415-0.423-1.56-1.692-2.618-2.684-3.755-6.242-6.279-12.059-12.956-18.444-19.077z" stroke="#000"/>
 <path d="m1020 51.721c25.609-1.6 51.587-1.481 76.786 3.913 13.459 3.623 26.984 7.271 39.715 13.062 39.821 17.518 73.336 47.291 99.248 81.916 22.647 29.628 40.006 63.169 51.786 98.521 12.864 37.917 19.091 77.844 20.928 117.76 1.613 30.17-0.357 60.789-8.778 89.928-20.307 74.235-80.977 135.5-154.47 157.75-37.481 11.489-77.249 14.001-116.14 10.484-40.76-3.755-81.109-12.983-119.04-28.464-33.356-13.221-64.742-31.452-92.4-54.324-16.579-13.736-32.272-28.742-45.241-45.995-17.346-23.057-30.712-49.327-37.613-77.408-5.46-22.991-6.888-46.801-5.42-70.334 1.732-33.938 9.942-67.492 23.731-98.534 15.283-35.167 39.067-65.548 59.758-97.556 14.715-17.888 32.325-33.33 51.27-46.616 37.626-25.08 80.567-41.936 124.94-50.331 10.245-1.799 20.597-2.83 30.949-3.769m-123.27 254.57c-16.856 4.997-30.368 18.588-36.793 34.771-4.548 11.727-4.892 24.815-2.129 37.018 4.416 18.628 19.064 34.017 36.714 40.918 9.307 3.847 19.553 3.9 29.443 3.213 17.121-2.089 32.232-12.93 41.804-26.97 8.911-13.089 11.013-29.8 8.157-45.149-4.521-0.106-9.162 0.41-13.525-0.978-6.557-1.864-11.991-6.253-16.605-11.105-7.523-8.17-10.365-20.439-6.809-31.016-12.942-4.219-27.181-4.483-40.257-0.702z" fill="#fff" stroke="#fff"/>
 <path d="m1563.4 52.012c33.647-2.248 67.902-1.838 100.88 5.923 28.305 6.121 55.672 16.288 81.347 29.641 45.4 24.577 84.983 60.181 113.46 103.31 30.289 45.241 46.233 98.785 51.773 152.62 3.252 33.819 3.966 68.417-3.874 101.69-5.275 21.88-14.107 43.1-27.288 61.424-12.401 17.451-28.927 31.73-47.317 42.584-23.321 14.027-49.604 22.462-76.244 27.38-33.66 6.227-68.06 7.774-102.21 5.844-33.819-2.314-67.531-8.091-99.658-19.13-26.838-9.347-52.711-21.695-76.337-37.547-39.094-26.997-75.795-59.864-98.746-102.05-11.647-21.523-18.787-45.559-19.977-70.03-1.785-36.582-3.107-73.256-0.992-109.84 0.965-12.652 1.719-25.49 5.738-37.613 9.241-29.02 26.098-54.734 42.69-79.986 2.552-3.57 4.614-7.628 8.078-10.444 24.776-20.122 51.958-37.706 81.942-48.996 21.472-7.788 44-12.746 66.74-14.782m-42.425 234.95c-13.313 2.168-25.952 9.056-34.387 19.659-11.251 12.732-15.931 30.487-13.551 47.198 2.631 24.921 23.573 46.061 47.978 50.45 14.054 2.115 29.112 0.41 41.288-7.337 9.73-6.386 18.377-14.913 23.493-25.476 5.91-11.952 6.914-25.847 4.574-38.843-4.522-0.172-9.162 0.41-13.525-1.005-6.862-1.943-12.507-6.637-17.227-11.793-7.139-8.21-9.558-20.109-6.267-30.474-10.456-3.265-21.575-3.952-32.376-2.379z" fill="#fff" stroke="#fff"/>
 <path d="m1521 286.96c10.801-1.573 21.92-0.886 32.378 2.38-3.292 10.365-0.873 22.264 6.267 30.474 4.72 5.156 10.365 9.849 17.227 11.793 4.363 1.415 9.003 0.833 13.525 1.005 2.34 12.996 1.335 26.891-4.574 38.843-5.116 10.563-13.763 19.091-23.493 25.476-12.177 7.747-27.235 9.453-41.288 7.337-24.406-4.389-45.347-25.529-47.978-50.45-2.38-16.711 2.3-34.467 13.551-47.198 8.432-10.604 21.071-17.492 34.385-19.66z" stroke="#000"/>
 <path d="m896.78 306.29c13.075-3.781 27.314-3.517 40.257 0.701-3.556 10.577-0.714 22.845 6.809 31.016 4.614 4.852 10.048 9.241 16.605 11.105 4.363 1.388 9.003 0.873 13.525 0.978 2.856 15.349 0.754 32.06-8.157 45.149-9.572 14.04-24.683 24.881-41.804 26.97-9.889 0.688-20.135 0.635-29.443-3.213-17.65-6.901-32.298-22.29-36.714-40.918-2.763-12.203-2.419-25.291 2.129-37.018 6.425-16.182 19.937-29.773 36.793-34.77z" stroke="#000"/>
 <path d="m1325.8 370.94c5.83-0.066 11.647-0.317 17.478-0.37 5.553 42.769 28.504 81.308 57.365 112.58-16.5 13.234-35.749 23.864-56.942 26.904-15.481 2.248-31.175 0.899-46.749 0.965 10.193-20.32 18.641-41.632 23.044-64.015 5.46-24.934 7.047-50.595 5.804-76.059z" fill="#ED4035" stroke="#ED4035"/>
 <path d="m1930.2 373.17c62.825 3.424 125.62 8.475 187.91 17.57 37.282 4.773 74.406 10.881 111.24 18.377 25.979 5.606 52.262 10.801 77.051 20.677 17.134 6.954 34.295 15.944 46.22 30.474 12.414 17.015 17.65 38.129 20.082 58.753-16.116-0.661-32.232-0.383-48.348-0.357-12.004 0.278-22.806 6.28-33.99 9.942-4.693 2.01-10.656 3.358-12.705 8.66-0.595 2.565-0.979 5.183-1.388 7.8-13.274 4.574-27.116 7.8-39.477 14.649-4.429 2.604-9.665 2.895-14.635 2.314-14.199-1.586-28.715 1.031-42.69-2.591-21.246-5.262-42.306-17.531-52.209-37.772-5.619-10.497-4.984-23.811-13.366-32.867-6.425-6.875-14.278-12.163-21.391-18.258-9.942-7.88-19.276-16.499-29.76-23.652-8.157 8.065-16.222 16.579-26.587 21.827-19.197 9.783-41.592 14.569-62.931 10.087-12.11-2.38-23.93-6.637-34.374-13.274-5.857-3.808-12.666-7.179-15.786-13.816 6.199-25.66 8.169-52.194 7.138-78.543z" fill="#ED4035" stroke="#ED4035"/>
 <path d="m595.08 391.07c39.107-2.459 78.267-3.953 117.44-4.574 1.758 24.908 8.144 49.327 17.742 72.331-9.003 13.181-11.965 30.157-8.408 45.664 3.503 13.617 13.009 24.511 21.841 35.035 14.781 15.6 28.834 31.968 45.215 45.969 13.472 12.943 28.901 23.573 44.818 33.237 14.966 9.109 30.236 17.742 45.955 25.49 20.836 10.537 42.095 20.889 64.927 26.23 35.868 8.223 72.965 4.773 109.23 1.626 29.733-2.644 59.731-6.121 88.077-15.997 20.928-6.848 39.993-18.245 58.105-30.566 16.156-11.383 31.77-23.573 46.392-36.859 8.911-8.038 15.786-17.98 22.224-28.028 3.371-5.116 5.341-10.947 7.285-16.698 2.34-5.209 6.346-9.413 9.387-14.199 4.257-6.002 7.364-12.745 11.647-18.721 15.574-0.066 31.267 1.282 46.749-0.965 21.193-3.041 40.442-13.67 56.942-26.904 1.322 1.362 2.657 2.723 4.019 4.098-4.098 10.259-6.597 21.801-2.724 32.549 5.976 19.805 23.573 32.669 40.654 42.624 22.409 12.705 45.479 24.432 69.594 33.581 35.551 13.736 73.666 19.263 111.48 22.118-9.003 12.467-10.193 28.332-11.132 43.179-1.335 30.143 0.595 60.34 2.882 90.39 4.191 62.045 14.424 123.52 27.618 184.24 5.024 22.528 10.484 44.977 17.015 67.122-22.938 7.02-46.511 11.793-69.634 18.152-24.168 6.478-48.705 11.357-73.137 16.671-43.232 9.334-86.702 17.65-130.44 24.181-0.119-2.591-0.212-5.169-0.225-7.734 2.657-33.898 2.512-68.246-3.556-101.8-3.675-20.928-10.22-41.249-18.43-60.802-4.799-10.854-9.664-21.748-16.235-31.664 15.019-1.375 30.117-0.899 45.175-0.992 31.267 0.053 62.296 5.182 92.532 12.93 26.917 7.417 53.571 16.579 78.069 30.156 13.763 7.086 26.746 15.548 39.913 23.678 5.619 2.948 11 8.818 17.941 6.954 4.667-1.573 6.015-7.457 4.482-11.687-2.644-4.046-8.051-5.302-10.418-9.519-2.248-5.156-5.87-9.545-8.118-14.662-6.822-22.409-15.336-44.263-21.92-66.765-13.366-44.131-24.683-88.883-33.924-134.06-1.957-8.792-2.631-18.112-7.404-25.992 10.987-7.84 21.894-15.852 32.087-24.71 3.318-2.538 5.011-7.232 3.094-11.119-2.102-5.447-10.034-6.134-14.001-2.419-9.664 8.025-19.355 16.037-29.786 23.044-6.716 4.363-13.842 9.255-22.184 9.215-15.891 0.516-31.796 0.278-47.687 0.172-25.582-0.106-51.032-4.971-75.213-13.194-38.604-12.771-75.517-32.126-105.71-59.612-3.332-2.803-5.976-6.571-9.929-8.514-4.574-1.388-8.739 1.256-12.137 3.993-18.403 13.67-31.65 32.986-42.108 53.121-13.327 25.926-22.779 53.65-30.699 81.638-14.979 53.465-24.934 108.25-30.95 163.44-1.23 11.899-2.737 23.824-2.922 35.802-0.489 5.645 5.037 11.053 10.682 10.206 2.631-0.304 4.667-2.248 6.584-3.887 16.433-16.143 36.132-28.782 57.153-38.062 22.766-10.114 46.63-17.782 71.075-22.674 11.674-2.221 23.348-4.878 35.286-5.341-35.551 36.08-74.869 68.708-106.35 108.64-1.679 1.957-3.12 4.31-5.421 5.592-8.422-1.322-16.275-6.187-25.014-5.169-24.71 2.644-49.3 6.967-73.269 13.591-13.089 3.451-25.635 8.858-39.028 11.158-33.634 6.28-68.074 4.561-102.01 2.353-27.803-2.247-55.527-5.302-83.172-8.99-34.771-4.786-69.211-11.714-103.43-19.474-49.631-12.308-98.455-28.636-144.3-51.429-25.278-11.952-48.481-27.724-71.141-43.985-4.839-3.226-7.417-8.58-10.484-13.313-6.981-10.947-14.146-21.801-22.039-32.1-4.032-6.068-13.036-4.085-17.954-0.211-13.446 11.039-22.264 26.336-32.193 40.363-58.502-23.625-116.5-48.613-172.85-77.051 9.532-14.688 18.773-29.562 26.627-45.228 2.3-3.86 3.609-8.435 6.637-11.78 11.158-3.993 17.346-15.296 20.135-26.177 1.375-4.918 0.291-9.995-0.198-14.939 0.423-2.684 1.917-5.037 2.961-7.496 10.206-21.272 19.818-42.835 29.377-64.411 1.653-3.979 4.455-8.263 2.776-12.705-1.891-6.769-13.485-7.086-15.812-0.489-5.064 10.696-9.44 21.722-14.715 32.312-7.483 0.079-15.151 1.428-21.431 5.738-14.239 9.321-24.511 23.216-35.128 36.225-14.953 18.033-34.903 31.545-48.005 51.151-10.51 17.623-18.985 36.899-22.026 57.325-1.705 10.074 0.555 20.254 2.909 30.038-8.276-1.639-16.156-5.196-24.67-5.645-5.579-0.251-11.37-1.468-16.843 0.119-5.024 3.318-5.116 12.11 0.37 15.045 3.49 1.6 7.47 1.401 11.224 1.838 6.386 0.317 12.679 1.613 18.773 3.57-6.69 10.259-12.52 23.229-7.377 35.405 2.38 7.417 9.889 10.643 15.878 14.609 4.971 2.829 5.592 8.977 7.523 13.816 2.01 6.425 6.703 11.886 7.271 18.76 0.806 6.888-0.172 14.331 3.318 20.638 4.931 9.003 14.503 14.728 24.419 16.605 11.264 2.234 22.66-0.304 33.911-1.415 2.181 4.826 4.125 9.929 7.681 13.961 4.469 4.971 11.172 7.139 15.772 11.965 3.199 4.112 3.913 9.479 5.725 14.265 3.014 9.255 10.246 16.156 15.191 24.353 6.637 10.775 13.459 21.933 15.521 34.651 0.873 6.253 2.684 12.599 7.774 16.777-2.3 8.898-4.627 17.795-7.02 26.68-4.416-10.947-10.986-20.889-17.518-30.659-6.69-8.501-13.115-18.972-24.498-21.365 1.018 4.125 2.419 8.263 5.341 11.476 4.072 4.733 6.888 10.339 9.162 16.116 2.472 6.372 6.491 11.925 9.73 17.888 3.424 6.267 2.909 13.63 3.596 20.532 0.859 8.699 2.274 17.504 5.777 25.582 1.322 2.538 3.133 4.958 5.645 6.439 2.856 0.635 6.015 0.238 8.514-1.322 2.829-2.115 3.424-5.87 4.244-9.07 1.705-8.302 3.332-16.618 5.196-24.881 9.849-0.291 19.342-3.358 27.922-8.104 41.46-21.034 72.291-60.419 85.816-104.58 5.526-15.786 6.69-32.536 8.382-49.036 8.422 6.478 15.6 14.503 24.63 20.201 10.947 7.417 23.031 12.97 35.445 17.425 0.278 9.215 0.82 18.668 4.588 27.235 5.553 12.996 12.758 25.212 18.853 37.957 4.746 10.273 8.21 21.167 14.12 30.871 9.598 16.526 26.362 28.623 44.884 33.065 14.556 2.856 30.236 2.552 44.025-3.424 8.091-3.424 15.204-8.673 22.237-13.855 12.652 15.838 32.087 26.917 52.658 26.706 16.909-0.172 33.356-7.694 45.189-19.659 5.87-6.015 12.639-11.727 21.127-13.393 20.36-4.349 41.143 2.168 61.622-0.661 10.603-1.666 19.659-7.998 29.958-10.669 12.018-3.266 25.238-2.38 36.37-8.686 10.762-6.201 19.646-15.323 31.016-20.558 9.307-4.641 20.413-3.993 30.024-0.661 21.695 7.166 35.855 26.759 56.241 36.265 15.336 7.404 33.422 6.214 49.155 0.727-40.336 56.744-99.142 98.481-162.75 125.54-18.205 6.65-36.093 14.517-54.985 19.038-30.051 3.292-59.771 9.44-89.98 11.37-19.514 0.846-39.041 0.066-58.542 0.41-27.235-3.755-54.258-9.096-81.347-13.842-20.466-3.715-40.984-7.681-60.657-14.583-3.794-1.309-7.972-3.57-11.991-1.798-3.451 1.362-5.222 5.262-4.627 8.831 0.291 3.728 3.887 5.645 6.082 8.263 1.454 4.165 1.481 9.453 5.46 12.216 7.523 5.447 16.975 6.941 25.476 10.312 24.287 8.25 48.19 18.086 73.468 23.017 25.913 5.447 52.354 7.734 78.743 9.4 15.31 0.516 30.765 0.952 45.955-1.415 16.262-2.327 32.126-6.967 48.547-8.302 26.917-3.543 54.324-4.574 80.594-11.912 10.378-2.988 21.299-4.68 30.804-10.074 9.36-4.984 16.354-13.565 26.349-17.478 9.823-4.112 18.774-9.929 27.354-16.156 12.203-8.395 24.035-17.293 35.511-26.627 7.351-5.896 12.269-14.146 19.527-20.109 9.387-7.813 18.945-15.429 28.134-23.467 8.144-7.324 14.966-17.914 12.903-29.323-0.661-7.047-6.108-12.031-11.079-16.42 14.252-18.892 27.301-38.763 37.904-59.943 12.599-24.26 28.901-46.365 46.286-67.386 13.472-16.407 28.226-31.717 43.562-46.392 15.944-15.124 31.479-30.699 47.767-45.453 12.48 24.564 21.576 50.979 25.78 78.254 4.27 27.922 5.249 56.347 2.922 84.494-2.419 30.566-4.469 61.159-6.835 91.726-6.888 1.031-13.935 1.692-20.492 4.151-12.11 5.037-22.211 14.847-27.036 27.103-9.056 21.999-7.708 47.105-18.866 68.417-1.282 2.01-2.446 4.826-5.156 5.116-8.924 1.19-18.496-0.635-26.798 3.755-10.894 4.323-16.751 15.164-26.058 21.695-8.818 6.174-13.049 16.354-17.861 25.569-2.538 4.707-4.482 10.431-9.585 12.983-9.228 4.852-18.813 9.083-27.592 14.741-4.733 3.094-8.99 7.086-11.766 12.071-2.843 5.182-3.623 11.198-6.148 16.526-7.827 2.142-16.552 0.78-23.797 5.05-7.205 3.464-11.264 10.828-17.795 15.151-10.286 5.156-22.132 4.561-33.29 5.368-10.061 0.489-18.43 7.959-22.779 16.632-3.57 7.126-2.129 15.534-5.037 22.845-4.125 5.91-10.643 9.585-15.415 14.953-6.148 6.928-14.939 10.246-23.202 13.842-21.338 9.625-43.417 17.689-66.038 23.731-27.354 6.954-55.514 9.625-83.436 13.194-8.329 1.481-13.988-6.147-21.484-8.025-12.599-3.16-25.476 1.468-38.182-0.212-13.485-1.705-26.653-5.83-40.337-5.817-12.877-0.396-25.556 2.499-38.406 2.724-13.181 0.33-26.362-5.116-39.438-1.375-8.884 1.864-15.984 7.946-21.629 14.754-7.364-1.018-14.635-2.565-21.814-4.495-0.595-9.783-0.925-20.043-5.738-28.848-6.227-11.581-17.24-20.214-29.429-24.776-11.529-3.609-23.916-2.406-35.696-0.859-8.303 0.992-15.759 5.077-22.303 10.074-30.051-18.443-57.325-41.103-83-65.192-14.067-12.361-26.309-26.6-38.829-40.482-16.909-19.553-32.417-40.297-46.378-62.058-6.994-10.312-13.921-22.396-26.693-26.164-2.486-3.266-4.997-7.814-9.836-7.166-5.103-0.688-9.228 2.512-13.287 5.024-9.149 0.04-18.906-0.066-27.195-4.416-7.443-4.204-9.215-13.194-12.732-20.294-5.077-11.105-16.275-19.672-28.663-20.215-3.768-0.304-7.562-0.264-11.33-0.225-0.053-9.135-1.692-18.602-7.496-25.926-8.342-11.74-21.973-17.769-34.678-23.507-24.101-10.153-46.788-23.282-69.277-36.529 1.719-9.241 1.071-19.197-4.574-27.05-4.032-7.814-12.348-11.515-20.294-14.08 2.353-8.17 3.887-16.962 1.349-25.278-4.297-14.979-14.675-27.42-18.271-42.69 4.918 4.614 10.881 10.682 18.311 8.17 9.757-2.38 11.833-15.865 5.804-22.859-5.077-6.452-16.275-5.46-20.598 1.335-2.155 3.649-3.054 7.853-4.112 11.925-0.701-10.696 0.357-21.365 0.198-32.034-0.357-11.687-5.764-22.409-11.766-32.153-6.676-10.207-14.093-20.228-24.115-27.407-0.859 3.715-1.692 7.443-2.512 11.198-1.454 0.529-2.922 1.084-4.389 1.653l-1.031 0.396c-9.083-23.863-14.358-50.133-8.567-75.451 0.119 0.608 0.344 1.811 0.45 2.419 18.112-5.064 33.964-16.077 47.806-28.517 11.462-10.193 21.246-22.052 30.831-33.964 3.345-4.151 6.134-8.779 9.916-12.573 3.49-3.385 8.488-4.257 12.956-5.685 25.741-7.761 49.684-20.4 72.423-34.546 14.715-9.215 29.786-18.218 42.425-30.262 9.255-9.268 17.253-20.109 21.695-32.523 4.469-11.846 5.592-24.551 8.078-36.886 2.062 4.945 3.596 10.696 8.197 13.961 6.716 4.548 16.856 4.482 22.74-1.481 4.693-4.707 7.192-11.343 7.43-17.927 0.542-8.435-6.425-16.473-14.768-17.372-4.548-0.529-9.519-0.026-13.274 2.79-3.556 2.591-6.425 5.976-9.44 9.149 0.185-4.522-0.542-9.307 1.137-13.591 3.12-4.336 7.919-7.02 11.819-10.563 9.955-9.056 20.519-18.417 25.622-31.227 2.816-6.293 3.292-13.221 4.059-19.977 0.846-1.653 2.75-3.715 4.72-3.504 10.233 3.821 19.937 9.678 26.997 18.126 7.192 8.66 13.498 18.205 17.425 28.808 1.349 2.909 2.248 6.306 4.773 8.461 4.945 2.234 10.524 2.3 15.838 2.909 25.82 1.996 52.315 0.119 76.918-8.408 18.654-6.452 36.132-16.552 50.715-29.905 17.822-16.182 31.069-37.058 39.609-59.48 8.382-22.079 11.105-45.797 11.833-69.277 0.9-13.077 0.887-26.205-0.329-39.267m-85.01 209.35c-8.144 0.899-16.129 4.072-22.039 9.849-4.046 3.556-6.042 8.818-10.008 12.414-4.905 3.49-10.828 5.632-14.847 10.312-6.743 7.536-12.031 16.658-14.358 26.547-2.459 11.462 3.358 23.282 12.52 30.117 12.718 10.563 29.958 11.039 45.479 13.908 16.103 2.287 30.95 9.307 46.696 13.022 12.732 3.252 26.759 3.57 38.896-2.023 9.122-4.046 16.486-11.978 19.435-21.55 4.244-13.67 0.846-29.046-7.761-40.323-10.563-15.019-27.764-24.049-45.585-27.261-2.75-5.315-5.579-10.841-10.378-14.596-10.352-8.882-24.697-12.187-38.05-10.416m252.46 184.23c0.555 2.578-0.251 5.949 2.062 7.853 3.014 0.317 6.055 0.212 9.096 0.251 0.304-3.226 2.367-7.642-1.177-9.81-3.252-2.432-6.835 0.636-9.981 1.706m33.964 13.71c-9.532 1.163-12.295 13.3-8.527 20.796 2.763 4.892 9.056 6.32 14.278 5.791 4.826-1.203 7.721-6.121 8.898-10.643 2.366-8.355-5.923-18.152-14.649-15.944m-239.32 219.62c-10.616 0.846-16.195 11.224-22.184 18.654-8.818 11.872-17.716 23.678-26.812 35.326-6.967 8.818-10.537 19.818-18.02 28.279-4.971 5.791-10.484 11.714-12.295 19.381-1.745 6.558 0.476 14.08 5.87 18.311 6.161 5.037 15.204 5.024 22.211 1.824 6.015-2.895 11.066-7.39 16.381-11.343 9.003-6.756 17.134-14.596 24.723-22.872 7.853-9.056 14.212-19.263 21.233-28.953 7.258-10.616 14.027-22.859 12.943-36.159-0.623-12.083-11.371-23.903-24.05-22.448m-287.78 128.96c1.864 3.411 3.86 6.835 6.729 9.545 7.126 6.981 13.869 14.358 21.444 20.876 8.25 7.179 15.825 15.376 25.503 20.691 5.064 3.001 12.652 2.194 15.984-2.962 2.38-5.024 0.555-11.145-3.398-14.807-10.035-10.021-22.964-16.367-35.458-22.713-9.849-4.562-19.712-10.088-30.804-10.63m264.04 4.601c-9.479 4.323-17.993 10.841-25.357 18.179-5.606 5.368-9.083 13.71-6.002 21.299 4.839 4.826 12.771 3.094 18.073-0.026 5.936-4.059 10.63-9.651 16.314-14.04 6.055-4.984 12.639-12.018 10.788-20.558-0.966-6.322-9.03-6.771-13.816-4.854m-142.78 88.341c-3.437 1.375-2.367 6.544-0.132 8.659 2.829 0.569 6.729 1.19 8.62-1.6 0.436-1.877 0.436-3.847 0.013-5.685-1.864-2.736-5.79-2.551-8.501-1.374m814.78 42.095c2.248-0.939 4.879-1.375 6.716-3.094 1.269-1.891 2.168-3.979 3.16-6.002-1.084-0.212-3.266-0.635-4.35-0.846-2.67 2.802-5.248 5.883-5.526 9.942m-69.025 36.198c-3.781 2.261-7.509 5.606-8.726 9.982-0.899 5.883 6.914 8.832 11.211 5.685 4.191-3.094 8.356-7.205 9.863-12.256-1.018-5.394-8.395-5.103-12.348-3.411m-156.12 83.251c-10.127 2.869-19.99 6.61-30.117 9.453-6.637 2.3-13.921 3.741-19.487 8.276-5.804 5.196-3.953 15.164 2.155 19.329 7.02 5.116 16.195 5.169 24.511 4.667 10.154-0.635 19.355-5.46 28.173-10.14 6.293-3.451 12.837-7.734 15.799-14.569 1.97-4.998 1.772-11.806-2.935-15.217-5.182-3.822-12.189-2.989-18.099-1.799z" fill="#D12C2A" stroke="#D12C2A"/>
 <path d="m542.22 399.85c17.637-2.856 35.141-6.478 52.857-8.779 1.216 13.062 1.229 26.19 0.331 39.266-0.727 23.48-3.451 47.198-11.833 69.277-8.541 22.422-21.788 43.298-39.609 59.48-14.583 13.353-32.06 23.454-50.715 29.905-24.604 8.527-51.098 10.405-76.918 8.408-5.315-0.608-10.894-0.674-15.838-2.909-2.525-2.155-3.424-5.553-4.773-8.461-3.927-10.603-10.233-20.148-17.425-28.808-7.06-8.448-16.764-14.305-26.997-18.126 2.367-2.525 5.725-4.641 6.386-8.289 1.349-4.72-2.314-10.312-7.377-10.246-5.976-0.661-9.664 4.931-14.107 7.893-28.068 20.809-54.747 43.351-82.22 64.914-0.635-20.347 1.494-40.641 4.363-60.749 4.31-24.088 17.822-45.744 35.154-62.693 14.358-13.921 30.87-25.595 48.613-34.784 1.957-0.925 4.046-1.507 6.161-1.917 64.648-11.078 129.3-22.276 193.95-33.382z" fill="#ED4035" stroke="#ED4035"/>
 <path d="m2036.1 468.72c10.365-5.249 18.43-13.763 26.587-21.827 10.484 7.152 19.818 15.772 29.76 23.652 7.113 6.095 14.966 11.383 21.391 18.258 8.382 9.056 7.747 22.37 13.366 32.867 9.902 20.241 30.963 32.51 52.209 37.772 13.974 3.622 28.491 1.005 42.69 2.591 4.971 0.582 10.207 0.291 14.635-2.314 12.361-6.848 26.203-10.074 39.477-14.649 0.41-2.618 0.793-5.235 1.388-7.8 0 2.776-0.331 5.923 1.573 8.263 2.248 3.345 7.126 4.548 10.616 2.38 5.91-3.107 12.084-5.659 18.416-7.761-1.19 5.619-4.032 12.282-0.039 17.425 6.055 7.88 15.825 11.423 24.789 14.86 22.66 8.501 47.066 9.572 70.678 13.869 13.776 2.512 27.843 4.878 40.535 11.145 18.972 9.321 36.82 20.809 53.769 33.422 8.885 6.544 15.68 15.389 21.88 24.419 6.729 9.559 12.071 20.162 20.228 28.663 7.496 7.787 12.256 18.007 13.406 28.755 0.489 5.725 1.891 11.476 5.844 15.865-4.323 10.273-13.697 17.927-15.944 29.191-6.306 27.407-9.188 55.805-19.725 82.101-4.151 9.651-8.58 19.21-14.041 28.2-9.744 2.446-19.686 4.905-28.385 10.087-9.347 5.513-17.901 12.229-27.248 17.703-16.367 9.73-34.096 17.2-52.671 21.431-4.918 0.595-5.791 5.949-7.47 9.691-9.942-3.464-20.492-5.976-31.069-4.522-10.748 0.965-20.36 6.822-27.975 14.173-10.114 9.466-16.01 22.224-22.806 34.057-22.383 41.407-52.143 78.412-84.957 111.99-5.896 6.888-12.626 12.956-19.302 19.051-18.747 18.866-39.345 35.775-60.406 51.957-19.051 14.04-38.71 27.499-60.102 37.745-16.738 7.721-34.215 14.014-52.288 17.769-24.604 4.733-50.318 5.553-74.724-0.806-23.929-5.91-46.035-17.676-66.13-31.743-16.936-11.449-32.827-24.366-48.269-37.732-36.45-31.492-69.885-67.082-95.427-108.09-11.105-18.39-20.585-37.772-28.028-57.92-16.209-45.678-23.797-93.894-28.583-141.96-3.239-29.879-6.994-59.692-11.039-89.478-1.468-11.727-4.402-23.255-4.799-35.101 5.579 8.567 9.334 18.152 14.226 27.129 24.339 47.595 49.71 94.912 80.62 138.63 26.085 36.701 56.321 71.26 93.801 96.697 19.739 13.512 41.976 23.414 65.39 28.451 6.068 1.388 12.256 2.314 18.271 3.979 7.126 3.728 11.766 10.907 19.236 14.106 13.71 6.068 28.213 10.749 43.232 12.005 9.215 0.436 16.777 7.179 26.058 7.086 10.378 0.185 21.431-1.758 29.575-8.633 6.24-4.826 10.405-12.375 10.325-20.347 0.423-6.134-4.019-10.92-5.804-16.447-2.234-6.677-1.719-14.596-6.848-20.029-6.253-7.562-16.632-9.215-25.886-9.545-22.925-0.212-45.85-2.697-68.298-7.364-15.151-3.371-30.13-8.17-43.668-15.852-7.866-4.429-14.939-10.325-23.506-13.393-8.911-3.318-18.773-4.746-26.494-10.643-6.174-4.72-9.017-12.203-13.234-18.483-6.981-10.854-17.597-18.562-25.886-28.306-5.91-6.888-11.965-13.974-20.281-18.02-8.038-3.781-11.925-12.163-17.888-18.231 11.555-14.754 21.153-30.99 29.879-47.555 7.985-15.125 13.644-31.307 20.4-46.987 4.627-10.841 10.867-21.325 20.069-28.901 7.628-6.267 17.57-9.083 27.301-9.612 14.067-0.701 28.2 2.34 41.037 8.051 18.469 7.721 36.159 20.016 56.915 19.871 15.27 0.238 29.443-7.747 40.059-18.231 6.729-6.505 10.193-15.376 14.199-23.625 3.715 12.48 5.473 25.556 10.643 37.587 4.839 11.37 11.462 22.647 21.999 29.601 9.254 6.399 20.585 8.805 29.985 14.939 10.299 7.219 13.908 20.188 22.845 28.715 14.662 14.279 36.635 19.316 56.505 15.984 8.99-1.481 17.042-6.042 24.604-10.907 11.145 18.443 20.625 37.851 29.654 57.404 6.69 14.609 10.96 30.725 21.497 43.232 6.148 7.602 14.913 13.168 24.591 14.9 13.723 2.552 28.002-1.031 39.94-7.972 11.158-6.703 20.386-15.997 29.681-24.974 10.272 7.959 23.189 13.723 36.449 11.78 2.776-0.463 3.847-3.504 5.54-5.394 2.34-1.454 4.998-2.499 6.994-4.442 1.692-2.789 1.785-6.174 2.261-9.307 1.732-18.443 3.199-37.164 0.211-55.567-1.335-8.038-3.649-16.314-9.083-22.594-2.935-3.503-7.232-5.315-11.423-6.795 5.526-8.303 8.514-17.914 13.67-26.415 7.681-13.34 17.333-25.886 29.998-34.837 7.139-5.315 15.363-9.069 22.158-14.86 6.253-5.354 8.977-13.366 12.507-20.532 3.583-7.787 8.197-15.111 11.132-23.189 1.944-5.249 1.56-10.907 1.639-16.381-0.079-3.411 1.415-7.152-0.423-10.273-2.657-5.063-10.894-5.5-14.146-0.873-8.448 10.815-17.755 21.166-28.94 29.218-9.426 7.086-21.1 9.916-31.704 14.688-13.194 5.156-25.886 11.542-38.922 17.002-12.414-0.833-21.748-9.744-30.104-18.007-7.232-7.311-16.222-12.494-25.45-16.83-8.884-4.191-18.007-8.937-23.956-17.042-9.479-12.599-13.855-29.456-27.592-38.525-6.584-4.693-14.94-3.9-22.555-4.138-4.997 0-9.479-2.327-14.014-4.059-4.138-1.772-8.686-0.661-12.996-0.595-4.178-0.648-8.17-3.662-12.507-2.01-4.099 0.899-5.976 5.566-5.341 9.4 0.119 3.16 3.081 4.918 5.315 6.69 6.848 4.231 7.139 13.221 8.844 20.294 2.896 12.851 0.767 26.931 7.589 38.724 4.085 8.686 11.819 14.609 18.126 21.563-0.489-0.106-1.468-0.331-1.957-0.436-3.927-0.952-6.835-4.059-10.154-6.148-11.436-7.84-22.502-16.248-34.057-23.903l-0.212-1.044c-1.401-9.849-5.91-19.897-14.688-25.212-6.425-3.847-14.358-3.464-21.1-0.727-11.899-8.422-23.388-17.385-35.088-26.058 2.776-4.363 5.989-8.884 5.976-14.278 0.093-7.893-1.957-15.614-2.01-23.48-0.251-17.808-6.967-37.111-22.687-46.934-14.001-8.924-31.412-10.154-47.502-8.237-12.996 1.6-25.463 8.118-33.118 18.893-15.164-5.513-31.571-5.143-47.423-4.178-9.889 1.111-20.109 2.75-28.649 8.197-19.144 11.489-35.485 26.97-50.781 43.086-15.653 16.579-30.368 34.043-44.594 51.865-16.248 20.069-31.888 40.654-46.22 62.151-14.556 22.198-27.869 45.479-36.542 70.665-4.654 12.586-8.157 25.542-11.238 38.591-6.558-8.739-11.211-18.668-16.619-28.094-29.006-53.068-55.012-107.71-84.137-160.71 5.5-1.137 11.105-1.891 16.751-1.626 17.835 0.568 35.696-0.198 53.425-2.314 24.855-2.155 49.498-6.425 73.772-12.203 25.331-6.267 50.675-15.402 71.286-31.862 15.508-11.885 27.896-27.512 37.586-44.395 6.491-11.912 13.287-24.181 15.085-37.838 1.401-8.448-0.291-16.896-1.573-25.225 0.714-4.839 2.393-9.453 3.543-14.199 3.12 6.637 9.929 10.008 15.786 13.816 10.444 6.637 22.264 10.894 34.374 13.274 21.341 4.482 43.737-0.304 62.934-10.087m-76.231 278.23c-6.372 1.322-11.423 6.015-15.164 11.105-5.05 6.822-4.879 17.042 0.516 23.652 3.86 4.799 8.858 9.757 15.455 9.876 9.995 1.243 19.95-3.451 26.693-10.643 6.769-8.117 4.72-21.047-3.001-27.816-6.294-6.32-16.051-7.655-24.499-6.174m-62.125 25.066c-7.906 1.93-14.107 7.747-18.985 13.988-8.488 10.735-15.006 22.991-19.554 35.894-2.79 8.792-5.103 18.086-3.913 27.367 0.846 5.077 3.424 10.92 8.884 12.322 5.83 1.626 11.714-1.6 15.706-5.685 9.519-9.638 14.635-22.422 21.96-33.607 6.558-10.762 19.197-17.306 22.819-29.892 2.195-8.25-3.067-17.332-11.039-20.016-5.116-1.679-10.695-1.574-15.878-0.371m136.17 7.959c-10.484 1.93-20.386 6.848-28.517 13.71-11.833 10.101-10.537 30.632 1.666 39.874 8.541 7.113 20.889 6.835 30.87 3.265 8.197-3.173 16.261-7.047 23.229-12.494 6.782-5.182 11.687-13.631 10.511-22.383-1.335-8.157-8.052-14.173-14.834-18.179-6.809-4.203-15.151-5.379-22.925-3.793z" fill="#D12C2A" stroke="#D12C2A"/>
 <path d="m730.26 458.83c8.369 18.152 18.641 35.471 31.082 51.138 15.429 19.712 33.964 36.793 53.716 52.09 61.146 47.846 137.59 73.798 214.48 80.382 55.977 4.601 114.46-2.578 164.39-29.641 23.824-12.983 45.731-29.562 64.478-49.194 6.161-6.267 11.198-13.551 17.517-19.672-1.943 5.751-3.913 11.581-7.285 16.698-6.438 10.048-13.313 19.99-22.224 28.028-14.622 13.287-30.236 25.476-46.392 36.859-18.112 12.322-37.177 23.718-58.105 30.566-28.345 9.876-58.343 13.353-88.077 15.997-36.265 3.147-73.362 6.597-109.23-1.626-22.832-5.341-44.091-15.693-64.927-26.23-15.719-7.747-30.989-16.381-45.955-25.49-15.918-9.664-31.346-20.294-44.818-33.237-16.38-14.001-30.434-30.368-45.215-45.969-8.831-10.524-18.337-21.418-21.841-35.035-3.556-15.508-0.594-32.483 8.409-45.664z" fill="#A52430" stroke="#A52430"/>
 <path d="m1892.1 519.13c12.216-15.971 20.611-34.387 27.354-53.214 1.282 8.329 2.975 16.777 1.573 25.225-1.798 13.657-8.594 25.926-15.085 37.838-9.691 16.883-22.079 32.51-37.586 44.395-20.611 16.46-45.955 25.595-71.286 31.862-24.273 5.777-48.917 10.048-73.772 12.203-17.729 2.115-35.59 2.882-53.425 2.314-5.645-0.264-11.251 0.489-16.751 1.626-2.552-4.019-4.27-9.109-8.567-11.568-8.157-2.023-13.935 5.632-20.915 8.303-37.812-2.856-75.927-8.382-111.48-22.118-24.115-9.149-47.185-20.876-69.594-33.581-17.081-9.955-34.678-22.819-40.654-42.624-3.874-10.748-1.375-22.29 2.724-32.549 35.498 36.555 78.425 66.077 125.66 85.3 33.211 13.578 68.47 21.735 104.13 25.41 22.251 2.816 44.726 2.406 67.109 2.142 46.18-2.671 93.471-10.074 134.47-32.682 21.695-12.084 41.209-28.358 56.095-48.282z" fill="#A52430" stroke="#A52430"/>
 <path d="m2052.5 520.91c16.09-1.917 33.501-0.687 47.502 8.237 15.719 9.823 22.436 29.125 22.687 46.934 0.053 7.866 2.102 15.587 2.01 23.48 0.013 5.394-3.199 9.916-5.976 14.278-33.078-24.736-66.064-49.578-99.341-74.036 7.655-10.776 20.122-17.294 33.118-18.893z" fill="#ED4035" stroke="#ED4035"/>
 <path d="m2308.2 540.15c7.258-2.75 14.9-4.601 22.713-4.35 18.033 0.225 36.198-0.82 54.099 1.891 28.597 2.605 57.259 7.298 84.269 17.346 23.004 6.888 44.197 18.813 63.168 33.409 15.944 12.454 29.615 28.253 37.507 47.039 10.18 23.202 12.19 49.816 5.989 74.367-1.269 5.275-3.027 10.431-4.574 15.627-4.284-0.145-8.805-0.053-12.084 3.094-3.953-4.389-5.354-10.14-5.844-15.865-1.15-10.748-5.91-20.968-13.406-28.755-8.157-8.501-13.499-19.104-20.228-28.663-6.201-9.03-12.996-17.874-21.88-24.419-16.949-12.613-34.797-24.101-53.769-33.422-12.692-6.267-26.759-8.633-40.535-11.145-23.612-4.297-48.018-5.368-70.678-13.869-8.964-3.437-18.734-6.981-24.789-14.86-3.99-5.143-1.148-11.806 0.042-17.425z" fill="#ED4035" stroke="#ED4035"/>
 <path d="m300.06 578.25c15.521-11.872 30.778-24.088 46.524-35.643-0.767 6.756-1.243 13.683-4.059 19.977-5.103 12.811-15.667 22.171-25.622 31.227-3.9 3.543-8.699 6.227-11.819 10.563-1.679 4.284-0.952 9.069-1.137 13.591 3.014-3.173 5.883-6.557 9.44-9.149 3.755-2.816 8.726-3.318 13.274-2.79 8.342 0.899 15.31 8.937 14.768 17.372-0.238 6.584-2.737 13.221-7.43 17.927-5.883 5.963-16.024 6.029-22.74 1.481-4.601-3.266-6.134-9.017-8.197-13.961-2.485 12.335-3.609 25.04-8.078 36.886-4.442 12.414-12.441 23.255-21.695 32.523-12.639 12.044-27.711 21.047-42.425 30.262-22.74 14.146-46.682 26.785-72.423 34.546-4.469 1.428-9.466 2.3-12.956 5.685-3.781 3.794-6.571 8.422-9.916 12.573-9.585 11.912-19.368 23.771-30.831 33.964-13.842 12.441-29.694 23.454-47.806 28.517-0.106-0.608-0.331-1.811-0.45-2.419 3.041-17.57 10.643-34.083 19.752-49.3 14.701-23.427 33.303-44.091 52.367-64.002 34.546-36.093 72.344-68.893 110.92-100.56 19.632-17.094 40.454-32.721 60.537-49.273z" fill="#ED4035" stroke="#ED4035"/>
 <path d="m1949.8 560.88c12.176-9.188 28.319-8.58 42.809-8.527 7.8 0.568 16.486 0.648 22.978 5.632 42.201 31.32 83.952 63.248 125.99 94.793 38.618 28.107 77.632 55.699 117.18 82.511 23.705 15.799 47.608 31.373 72.622 45.056 14.873 8.408 31.135 13.895 46.788 20.664 4.773 2.195 10.431 3.054 14.397 6.729 3.57 4.231 4.614 9.902 5.447 15.244 2.393 18.469-0.383 37.044-1.851 55.461-0.344 4.971 4.865 6.901 8.541 8.62-1.692 1.891-2.763 4.931-5.54 5.394-13.26 1.943-26.177-3.821-36.449-11.78-9.294 8.977-18.522 18.271-29.681 24.974-11.938 6.941-26.217 10.524-39.94 7.972-9.677-1.732-18.443-7.298-24.591-14.9-10.537-12.507-14.807-28.623-21.497-43.232-9.03-19.553-18.509-38.962-29.654-57.404-7.562 4.865-15.614 9.426-24.604 10.907-19.871 3.332-41.844-1.705-56.505-15.984-8.937-8.527-12.547-21.497-22.845-28.715-9.4-6.134-20.73-8.541-29.985-14.939-10.537-6.954-17.161-18.232-21.999-29.601-5.169-12.031-6.928-25.106-10.643-37.587-4.006 8.25-7.47 17.121-14.199 23.625-10.616 10.484-24.789 18.469-40.059 18.231-20.757 0.145-38.446-12.15-56.915-19.871-12.837-5.711-26.97-8.752-41.037-8.051-9.731 0.529-19.672 3.345-27.301 9.612-9.202 7.575-15.442 18.06-20.069 28.901-6.756 15.68-12.414 31.862-20.4 46.987-8.726 16.566-18.324 32.801-29.879 47.555-3.9 3.94-8.369 7.655-13.763 9.307-5.685 1.626-11.714 0.291-17.134-1.613-1.335-1.626-2.671-3.57-2.089-5.738 3.887-25.714 11.145-50.953 21.894-74.644 19.091-40.746 46.735-76.654 74.882-111.46 18.602-23.097 38.155-45.519 60.036-65.588 1.613-1.467 3.199-3.001 5.09-4.138 3.067-1.243 6.822-0.41 9.638-2.327 3.634-3.862 5.828-9.018 10.337-12.072z" fill="#ED4035" stroke="#ED4035"/>
 <path d="m510.07 600.42c13.353-1.772 27.697 1.534 38.049 10.418 4.799 3.755 7.628 9.281 10.378 14.596 17.822 3.213 35.022 12.242 45.585 27.261 8.607 11.277 12.004 26.653 7.761 40.323-2.948 9.572-10.312 17.504-19.435 21.55-12.137 5.592-26.164 5.275-38.896 2.023-15.746-3.715-30.593-10.735-46.696-13.022-15.521-2.869-32.761-3.345-45.479-13.908-9.162-6.835-14.979-18.654-12.52-30.117 2.327-9.889 7.615-19.011 14.358-26.547 4.019-4.68 9.942-6.822 14.847-10.312 3.966-3.596 5.963-8.858 10.008-12.414 5.911-5.779 13.896-8.952 22.04-9.851z" fill="#ED4035" stroke="#ED4035"/>
 <path d="m1246.6 631.07c7.099-10.722 15.389-20.743 25.384-28.887 16.328 15.534 34.89 28.61 54.562 39.57-14.265 20.096-29.191 39.742-45.003 58.647-8.924 11.515-18.84 22.541-25.49 35.603-15.997-10.867-32.364-24.3-37.864-43.628 7.192-21.352 16.328-42.241 28.411-61.305z" fill="#fff" stroke="#fff"/>
 <path d="m2213.9 602.71c4.31-0.066 8.858-1.177 12.996 0.595 4.535 1.732 9.017 4.059 14.014 4.059 7.615 0.238 15.971-0.555 22.555 4.138 13.736 9.069 18.112 25.926 27.592 38.525 5.949 8.104 15.072 12.851 23.956 17.042 9.228 4.336 18.218 9.519 25.45 16.83 8.356 8.263 17.689 17.174 30.104 18.007-10.537 5.249-21.55 9.492-31.822 15.257-3.861 2.367-8.329-0.04-12.295-0.78-25.093-7.232-50.992-14.093-72.966-28.755-10.881-7.311-21.669-17.478-23.427-31.135-1.494-13.049-2.089-26.494-7.1-38.816-2.064-5.514-5.884-10.088-9.057-14.967z" fill="#A52430" stroke="#A52430"/>
 <path d="m1637.2 629.1c5.844 7.549 9.519 16.433 14.305 24.643 8.223 15.64 16.222 31.413 24.379 47.106 0.82 1.758 1.745 3.543 2.049 5.513 0.397 11.846 3.332 23.374 4.799 35.101 4.046 29.786 7.8 59.599 11.039 89.478 4.786 48.071 12.375 96.287 28.583 141.96 7.443 20.148 16.922 39.53 28.028 57.92 25.542 41.011 58.978 76.601 95.427 108.09 15.442 13.366 31.333 26.283 48.269 37.732 20.096 14.067 42.201 25.833 66.13 31.743 24.406 6.359 50.12 5.54 74.724 0.806 18.073-3.755 35.551-10.048 52.288-17.769 21.391-10.246 41.051-23.705 60.102-37.745 21.061-16.182 41.659-33.092 60.406-51.957 6.676-6.095 13.406-12.163 19.302-19.051 32.814-33.581 62.574-70.586 84.957-111.99 6.795-11.833 12.692-24.591 22.806-34.057 7.615-7.351 17.227-13.208 27.975-14.173 10.577-1.454 21.127 1.058 31.069 4.522 1.679-3.741 2.552-9.096 7.47-9.691 18.575-4.231 36.304-11.701 52.671-21.431 9.347-5.473 17.901-12.19 27.248-17.703 8.699-5.182 18.641-7.642 28.385-10.087-16.685 29.628-39.742 55.461-66.408 76.469-14.781 12.665-31.492 23.03-49.618 30.156-0.82-3.318-0.912-7.39-4.006-9.479-4.112-2.856-10.391-1.639-12.771 2.895-17.372 26.6-34.718 53.227-52.539 79.549-11.304 16.433-22.039 33.29-34.48 48.904-17.808 22.964-37.058 44.805-57.748 65.205-28.874 28.94-62.071 53.822-99.037 71.458-50.622 24.948-108.2 34.625-164.31 30.13-26.256-2.367-52.447-6.28-77.87-13.406-18.879-5.222-37.587-11.145-55.897-18.126-9.664-3.755-19.501-7.271-28.438-12.586-17.465-10.061-32.113-24.286-45.03-39.609-15.27-18.509-27.83-39.107-38.671-60.458-22.383-43.338-37.983-89.809-50.966-136.7-8.263-29.866-14.702-60.168-20.638-90.562-4.112-18.641-6.425-37.6-9.492-56.426-6.425-45.77-10.431-91.884-12.018-138.08 0.093-19.064-1.163-38.38 2.856-57.153 0.766-4.005 2.631-7.654 4.667-11.144z" fill="#A52430" stroke="#A52430"/>
 <path d="m2153.8 639.9c6.742-2.737 14.675-3.12 21.1 0.727 8.779 5.315 13.287 15.362 14.688 25.212-12.572-7.694-24.18-16.896-35.788-25.939z" fill="#ED4035" stroke="#ED4035"/>
 <path d="m365.07 645.98c6.28-4.31 13.948-5.659 21.431-5.738-12.004 26.719-24.564 53.2-37.547 79.457-15.891 31.664-31.796 64.292-57.233 89.544-3.689 3.821-8.58 6.571-11.383 11.185-2.076 3.821 0.806 7.708 2.446 11.079-6.253-4.006-13.062-6.994-19.725-10.206l-0.238-0.582c-2.353-9.783-4.614-19.963-2.909-30.038 3.041-20.426 11.515-39.702 22.026-57.325 13.102-19.606 33.052-33.118 48.005-51.151 10.616-13.009 20.888-26.904 35.127-36.225z" fill="#A52430" stroke="#A52430"/>
 <path d="m1334.2 645.81c17.319 9.492 35.881 16.381 54.509 22.806-13.181 25.701-27.446 51.918-30.897 81.056-25.939 0.225-51.891 0.357-77.831 0.833-4.535-1.957-8.567-4.892-12.969-7.126 0.079-3.622-2.79-7.813 0.211-10.854 16.314-22.33 34.903-42.888 51.27-65.178 5.276-7.153 10.631-14.252 15.707-21.537z" fill="#fff" stroke="#fff"/>
 <path d="m2470.9 666.91c4.693-4.826 8.58-10.444 13.802-14.768-0.079 5.473 0.304 11.132-1.639 16.381-2.935 8.078-7.549 15.402-11.132 23.189-3.53 7.166-6.254 15.177-12.507 20.532-6.796 5.791-15.019 9.545-22.158 14.86-12.665 8.95-22.317 21.497-29.998 34.837-5.156 8.501-8.144 18.112-13.67 26.415-11.568-4.125-22.78-9.202-34.189-13.71-13.023-4.984-25.172-11.938-37.124-19.051 8.739-10.947 19.435-20.479 31.941-26.904 22.409-11.079 45.347-21.1 68.47-30.593 8.025-3.437 16.526-5.896 23.982-10.577 9.097-5.552 16.871-12.956 24.222-20.611z" fill="#ED4035" stroke="#ED4035"/>
 <path d="m1396.8 670.93c19.131 5.619 38.909 9.175 58.819 10.299-5.685 14.503-13.816 28.081-17.663 43.271-1.93 7.972-8.17 13.816-13.736 19.435-2.115 2.737-5.791 2.142-8.805 2.724-16.222 1.52-32.51 2.671-48.811 2.631 3.741-28.108 17.61-53.4 30.196-78.36z" fill="#fff" stroke="#fff"/>
 <path d="m1516.6 681.29c10.378-0.449 19.527-5.91 28.147-11.198 4.773 7.88 5.447 17.2 7.404 25.992 9.241 45.175 20.558 89.928 33.924 134.06 6.584 22.502 15.098 44.356 21.92 66.765 2.247 5.116 5.87 9.506 8.118 14.662-10.537-3.702-18.945-11.409-28.782-16.473-7.575-4.905-16.381-7.932-23.401-13.591-2.115-5.539-2.472-11.542-3.979-17.24-2.803-11.198-5.5-22.449-8.977-33.448-10.815-30.923-21.999-61.701-32.801-92.625-1.719-4.284-2.671-9.215-6.055-12.547-4.442-1.573-9.162-0.04-13.353 1.56-13.234 5.539-27.01 9.797-41.051 12.705 1.534-5.883 2.036-11.952 2.776-17.954 2.274-13.988 9.069-26.64 12.89-40.178 14.398-0.647 28.822 0.252 43.22-0.488z" fill="#300" stroke="#300"/>
 <path d="m381.91 693.03c0.489 4.945 1.573 10.021 0.198 14.939-2.79 10.881-8.977 22.184-20.135 26.177 2.657-7.562 6.901-14.411 10.18-21.695 3.2-6.491 5.923-13.247 9.757-19.421z" fill="#ED4035" stroke="#ED4035"/>
 <path d="m2235.9 697.37c2.578 0.463 4.521 2.353 6.689 3.741 11.039 7.813 23.652 12.851 35.934 18.311-1.56 1.891-3.094 3.794-4.601 5.711-8.765-5.725-17.452-11.542-25.992-17.557-4.773-3.411-10.008-6.28-13.988-10.643 0.491 0.106 1.469 0.331 1.958 0.437z" fill="#A42430" stroke="#A42430"/>
 <path d="m1210.2 717.07c6.743 6.862 12.388 14.794 20.029 20.77 5.91 5.037 12.441 9.307 18.126 14.635-16.962 2.367-33.845 5.302-50.397 9.73 3.027-15.296 7.416-30.315 12.242-45.135z" fill="#300" stroke="#300"/>
 <path d="m1449 759.15c17.531-3.411 35.128-7.232 51.72-14.027 2.168-1.375 2.419 2.248 3.133 3.503 5.844 16.566 11.846 33.078 17.623 49.67 9.162 24.723 17.584 49.816 22.912 75.689-11.978-5.804-24.643-9.995-37.336-13.855-35.061-10.815-71.551-16.923-108.2-18.337 0.132-25.688 1.706-51.442 5.685-76.826 14.9-1.256 29.827-2.565 44.462-5.817z" fill="#fff" stroke="#fff"/>
 <path d="m1959.9 746.95c8.448-1.481 18.205-0.145 24.498 6.174 7.721 6.769 9.77 19.699 3.001 27.816-6.743 7.192-16.698 11.886-26.693 10.643-6.597-0.119-11.595-5.077-15.455-9.876-5.394-6.61-5.566-16.83-0.516-23.652 3.742-5.09 8.792-9.783 15.165-11.105z" fill="#ED4035" stroke="#ED4035"/>
 <path d="m1285.4 767.51c36.754-0.423 73.534-0.172 110.25-2.208-3.794 25.344-5.288 51.019-5.368 76.641-31.254-0.846-62.613 1.6-93.219 8.051-1.719-18.681-4.799-37.23-6.135-55.937 0.239-9.175-2.591-17.993-5.526-26.547z" fill="#fff" stroke="#fff"/>
 <path d="m1193 782.41c26.706-9.81 55.289-12.811 83.529-14.345 2.287 6.676 4.918 13.379 5.54 20.479 0.82 21.219 4.588 42.187 6.518 63.327-40.561 9.479-80.66 24.829-113.54 50.953 4.085-40.389 9.572-80.686 17.953-120.41z" fill="#fff" stroke="#fff"/>
 <path d="m1897.8 772.01c5.183-1.203 10.762-1.309 15.878 0.37 7.972 2.684 13.234 11.767 11.039 20.016-3.622 12.586-16.261 19.13-22.819 29.892-7.324 11.185-12.441 23.969-21.96 33.607-3.993 4.085-9.876 7.311-15.706 5.685-5.46-1.401-8.038-7.245-8.884-12.322-1.19-9.281 1.124-18.575 3.913-27.367 4.548-12.904 11.066-25.159 19.554-35.894 4.879-6.239 11.079-12.056 18.985-13.987z" fill="#ED4035" stroke="#ED4035"/>
 <path d="m2033.9 779.97c7.774-1.586 16.116-0.41 22.925 3.794 6.782 4.006 13.499 10.021 14.834 18.179 1.177 8.752-3.729 17.2-10.511 22.383-6.967 5.447-15.032 9.321-23.229 12.494-9.982 3.57-22.33 3.847-30.87-3.265-12.203-9.241-13.499-29.773-1.666-39.874 8.131-6.862 18.033-11.78 28.517-13.711z" fill="#ED4035" stroke="#ED4035"/>
 <path d="m762.54 784.65c3.147-1.071 6.729-4.138 9.982-1.705 3.543 2.168 1.481 6.584 1.177 9.81-3.041-0.04-6.081 0.066-9.096-0.251-2.314-1.904-1.508-5.276-2.063-7.854z" fill="#A52430" stroke="#A52430"/>
 <path d="m313.82 811.4c4.654-6.967 10.114-13.366 14.887-20.241 56.347 28.438 114.35 53.425 172.85 77.051-16.79 26.256-33.435 52.658-48.322 80.038-0.701 1.097-1.454 2.155-2.287 3.173-9.387-5.87-17.98-12.917-26.732-19.686-27.658-21.88-54.271-45.572-75.768-73.693-11.251-13.551-21.735-27.697-32.126-41.91-0.979-1.506-2.129-2.96-2.5-4.732z" fill="#A52430" stroke="#A52430"/>
 <path d="m796.5 798.36c8.726-2.208 17.015 7.589 14.649 15.944-1.177 4.521-4.072 9.44-8.898 10.643-5.222 0.529-11.515-0.899-14.278-5.791-3.768-7.496-1.005-19.632 8.527-20.796z" fill="#A52430" stroke="#A52430"/>
 <path d="m284.18 832.39c6.756 0.278 12.494-3.292 17.108-7.88 7.906 11.158 16.328 21.946 24.538 32.893-2.433 1.983-4.799 4.072-7.086 6.24-10.207-11.779-21.775-22.316-34.56-31.253z" fill="#A52430" stroke="#A52430"/>
 <path d="m1787.1 838.46c5.394-1.653 9.863-5.368 13.763-9.307 5.963 6.068 9.85 14.45 17.888 18.231 8.316 4.046 14.371 11.132 20.281 18.02 8.289 9.744 18.906 17.451 25.886 28.306 4.217 6.28 7.06 13.763 13.234 18.483 7.721 5.897 17.583 7.324 26.494 10.643 8.567 3.067 15.64 8.964 23.506 13.393 13.538 7.681 28.517 12.481 43.668 15.852 22.449 4.667 45.374 7.152 68.298 7.364 9.255 0.331 19.633 1.983 25.886 9.545 5.13 5.434 4.614 13.353 6.848 20.029 1.785 5.526 6.227 10.312 5.804 16.447 0.08 7.972-4.085 15.521-10.325 20.347-8.144 6.875-19.197 8.818-29.575 8.633-9.281 0.093-16.843-6.65-26.058-7.086-15.019-1.256-29.522-5.936-43.232-12.005-7.47-3.199-12.11-10.378-19.236-14.106 33.779 4.297 67.902 9.016 102 6.068 5.103-0.833 11.714-0.291 14.913-5.249 3.451-4.376 0.886-11.819-4.68-12.785-7.033-0.873-13.961 1.454-20.981 1.56-11.912 0.172-23.877 0.463-35.736-0.78-28.174-2.552-56.558-5.315-83.82-13.247-26.547-7.919-49.948-23.718-70.758-41.632-14.53-12.745-28.107-26.613-40.218-41.698-14.662-18.126-28.517-36.939-40.984-56.638 5.422 1.903 11.451 3.238 17.136 1.612z" fill="#A52430" stroke="#A52430"/>
 <path d="m251.67 835.65c22.726 8.118 41.249 24.551 56.876 42.492 11.158 13.379 21.153 27.711 30.143 42.637 21.378 37.481 44.977 73.653 68.907 109.55 1.996 3.133 4.482 6.029 5.857 9.545-2.856 10.087-6.253 20.069-9.175 30.17-5.09-4.178-6.901-10.524-7.774-16.777-2.062-12.718-8.884-23.877-15.521-34.651-4.945-8.197-12.176-15.098-15.191-24.353-1.811-4.786-2.525-10.154-5.725-14.265-4.601-4.826-11.304-6.994-15.772-11.965-3.556-4.032-5.5-9.136-7.681-13.961-11.251 1.11-22.647 3.649-33.911 1.415-9.916-1.877-19.487-7.602-24.419-16.605-3.49-6.306-2.512-13.75-3.318-20.638-0.568-6.875-5.262-12.335-7.271-18.76-1.93-4.839-2.552-10.986-7.523-13.816-5.989-3.966-13.498-7.192-15.878-14.609-5.144-12.177 0.686-25.147 7.376-35.406z" fill="#ED4035" stroke="#ED4035"/>
 <path d="m511.84 883.9c9.294-13.842 18.443-27.949 29.905-40.125 9.215 12.004 16.632 25.265 25.384 37.56 19.871 17.451 42.809 31.029 65.773 43.985 51.098 26.878 105.87 46.405 161.89 60.154 59.89 14.397 121.02 23.15 182.35 28.451 29.403 2.261 58.978 3.583 88.447 1.6 16.063-1.282 32.1-3.821 47.41-9.03 28.332-9.73 57.907-15.455 87.64-18.826 4.958-0.608 9.598 1.785 14.252 3.133-7.827 11.608-15.706 23.216-22.515 35.471-10.868 20.016-21.722 40.27-35.67 58.343-15.733 5.487-33.819 6.677-49.155-0.727-20.386-9.506-34.546-29.099-56.241-36.265-9.611-3.332-20.717-3.979-30.024 0.661-11.37 5.235-20.254 14.358-31.016 20.558-11.132 6.306-24.353 5.42-36.37 8.686-10.299 2.671-19.355 9.003-29.958 10.669-20.479 2.829-41.262-3.688-61.622 0.661-8.488 1.666-15.257 7.377-21.127 13.393-11.833 11.965-28.279 19.487-45.189 19.659-20.571 0.212-40.006-10.867-52.658-26.706-7.033 5.183-14.146 10.431-22.237 13.855-13.789 5.976-29.469 6.28-44.025 3.424-18.522-4.442-35.286-16.539-44.884-33.065-5.91-9.704-9.374-20.598-14.12-30.871-6.095-12.745-13.3-24.961-18.853-37.957-3.768-8.567-4.31-18.02-4.588-27.235-12.414-4.455-24.498-10.008-35.445-17.425-9.03-5.698-16.209-13.723-24.63-20.201-1.692 16.499-2.856 33.25-8.382 49.036-13.525 44.157-44.356 83.542-85.816 104.58-8.58 4.746-18.073 7.814-27.922 8.104 11.185-52.301 30.249-102.78 55.144-150.07 13.525-25.195 28.755-49.455 44.25-73.477z" fill="#ED4035" stroke="#ED4035"/>
 <path d="m332.25 880.85c2.036-2.486 4.006-5.024 5.896-7.615 5.447 6.597 11.013 13.115 16.909 19.342-2.697 2.948-5.394 5.897-8.078 8.871-4.745-6.981-9.558-13.935-14.727-20.598z" fill="#ED4035" stroke="#ED4035"/>
 <path d="m355.06 892.57c2.618 2.935 5.328 5.791 8.144 8.567-2.393 2.234-6.227 4.059-6.055 7.88-0.37 3.927 1.983 8.898 6.518 8.699 4.495 0.648 7.338-3.292 10.021-6.187 21.894 20.149 45.268 38.618 69.475 55.897-7.774 16.989-15.323 34.07-22.013 51.521-14.754-21.034-28.292-42.901-42.042-64.61-11.105-17.385-20.902-35.59-32.126-52.896 2.684-2.974 5.381-5.922 8.078-8.871z" fill="#A52430" stroke="#A52430"/>
 <path d="m357.15 909.02c-0.172-3.821 3.662-5.645 6.055-7.88 3.556 3.385 6.981 6.928 10.484 10.391-2.684 2.895-5.526 6.835-10.021 6.187-4.535 0.2-6.888-4.771-6.518-8.698z" fill="#ED4035" stroke="#ED4035"/>
 <path d="m72.981 903.59c10.021 7.179 17.438 17.2 24.115 27.407 6.002 9.744 11.41 20.466 11.766 32.153 0.159 10.669-0.899 21.338-0.198 32.034 1.058-4.072 1.957-8.276 4.112-11.925 4.323-6.795 15.521-7.787 20.598-1.335 6.029 6.994 3.953 20.479-5.804 22.859-7.43 2.512-13.393-3.556-18.311-8.17 3.596 15.27 13.974 27.711 18.271 42.69 2.538 8.316 1.005 17.108-1.349 25.278 7.946 2.565 16.262 6.267 20.294 14.08 5.645 7.853 6.293 17.808 4.574 27.05 22.489 13.247 45.175 26.375 69.277 36.529 12.705 5.738 26.336 11.766 34.678 23.507 5.804 7.324 7.443 16.79 7.496 25.926 3.768-0.04 7.562-0.079 11.33 0.225 12.388 0.542 23.586 9.109 28.663 20.215 3.517 7.1 5.288 16.09 12.732 20.294 8.289 4.35 18.046 4.455 27.195 4.416-0.714 3.622-1.481 7.245-2.155 10.894-43.417-18.403-84.798-41.725-122.99-69.396-38.089-28.372-73.838-61-100.13-100.87-27.909-41.91-43.02-92.863-39.041-143.33-0.119-4.839 1.534-10.286-1.137-14.649-2.287-3.768-7.152-2.961-10.881-3.027 1.468-0.569 2.935-1.124 4.389-1.653 0.821-3.758 1.654-7.487 2.513-11.202z" fill="#A52430" stroke="#A52430"/>
 <path d="m2447.2 963.36c4.998-3.596 9.77-7.483 14.649-11.238-0.291 15.283-1.428 30.553-3.53 45.691-7.179-3.781-10.523-11.343-12.784-18.707 0.185-5.288 0.925-10.523 1.665-15.746z" fill="#ED4035" stroke="#ED4035"/>
 <path d="m2441.5 967.39c1.877-1.348 3.781-2.684 5.685-4.032-0.74 5.222-1.481 10.458-1.666 15.746-1.547-3.848-2.816-7.788-4.019-11.714z" fill="#9B222D" stroke="#9B222D"/>
 <path d="m1660.1 1003c8.408 28.702 17.927 57.114 29.39 84.758 4.984 12.348 10.92 24.273 16.367 36.436-72.463 23.044-147.16 38.737-222.47 48.93-6.108 0.793-12.163 2.063-18.324 2.208-29.244 0.436-58.475 1.401-87.707 2.3 2.062-32.338 5.05-64.61 7.139-96.934 0.806-8.805 1.018-17.663 2.168-26.428 0.013 2.565 0.106 5.143 0.225 7.734 43.734-6.531 87.204-14.847 130.44-24.181 24.432-5.315 48.97-10.193 73.137-16.671 23.125-6.359 46.697-11.132 69.635-18.152z" fill="#A52430" stroke="#A52430"/>
 <path d="m557.18 1018c12.679-1.454 23.427 10.365 24.049 22.449 1.084 13.3-5.685 25.543-12.943 36.159-7.02 9.691-13.379 19.897-21.233 28.953-7.589 8.276-15.719 16.116-24.723 22.872-5.315 3.953-10.365 8.448-16.381 11.343-7.007 3.2-16.05 3.213-22.211-1.824-5.394-4.231-7.615-11.753-5.87-18.311 1.811-7.668 7.324-13.591 12.295-19.381 7.483-8.461 11.053-19.461 18.02-28.279 9.096-11.648 17.993-23.454 26.812-35.326 5.989-7.431 11.569-17.809 22.185-18.655z" fill="#ED4035" stroke="#ED4035"/>
 <path d="m355.24 1044.7c11.383 2.393 17.808 12.864 24.498 21.365 6.531 9.77 13.102 19.712 17.518 30.659-2.486 13.247-6.399 26.217-8.408 39.57-3.504-8.078-4.918-16.883-5.777-25.582-0.688-6.901-0.172-14.265-3.596-20.532-3.239-5.963-7.258-11.515-9.73-17.888-2.274-5.777-5.09-11.383-9.162-16.116-2.924-3.214-4.325-7.352-5.343-11.476z" fill="#ED4035" stroke="#ED4035"/>
 <path d="m2333.5 1066.1c3.146-7.205 8.316-13.274 12.626-19.778-0.331 16.777 0.37 33.541 0.331 50.318 0.78 15.005-0.37 30.024-1.031 45.017-0.965 14.781-1.824 29.667-5.063 44.157-1.177-3.9-3.107-7.853-6.69-10.021-4.588-2.816-6.822-8.051-8.501-12.917-0.873-12.097 3.08-23.639 6.65-34.969 3.464-10.973 0.714-22.396-1.454-33.303-1.998-9.612 0.712-19.25 3.132-28.504z" fill="#ED4035" stroke="#ED4035"/>
 <path d="m2318.3 1087.6c4.641-7.43 9.44-14.913 15.257-21.51-2.419 9.255-5.13 18.892-3.133 28.504 2.168 10.907 4.918 22.33 1.454 33.303-3.57 11.33-7.523 22.872-6.65 34.969-4.389-10.484-9.651-20.915-10.762-32.391-0.965-8.66 0.106-17.623 3.609-25.635 1.071-2.723 2.512-5.328 3.133-8.197-0.224-3.213-2.141-5.976-2.908-9.043z" fill="#A52430" stroke="#A52430"/>
 <path d="m1129 1142.8c13.036-13.009 25.172-26.904 36.661-41.288 4.971 4.389 10.418 9.374 11.079 16.42 2.063 11.409-4.759 21.999-12.903 29.323-9.188 8.038-18.747 15.653-28.134 23.467-7.258 5.963-12.176 14.212-19.527 20.109-11.476 9.334-23.308 18.232-35.511 26.627-8.58 6.227-17.531 12.044-27.354 16.156-9.995 3.913-16.989 12.494-26.349 17.478-9.506 5.394-20.426 7.086-30.804 10.074-26.27 7.337-53.676 8.369-80.594 11.912-16.42 1.335-32.285 5.976-48.547 8.302-15.191 2.367-30.646 1.93-45.955 1.415-26.389-1.666-52.83-3.953-78.743-9.4-25.278-4.931-49.181-14.768-73.468-23.017-8.501-3.371-17.954-4.865-25.476-10.312-3.979-2.763-4.006-8.051-5.46-12.216 14.741 4.046 29.403 8.501 44.395 11.608 28.2 5.791 56.585 10.63 84.917 15.68 19.17 3.12 38.314 7.06 57.775 7.747 14.556 0.079 29.152 0.476 43.628-1.388 30.725-3.649 61.093-10.458 90.443-20.241 20.241-7.06 40.575-14.08 59.837-23.546 40.258-19.079 77.99-43.934 110.09-74.91z" fill="#A52430" stroke="#A52430"/>
 <path d="m1342.6 1141c6.557-2.459 13.604-3.12 20.492-4.151-2.565 35.286-6.108 70.493-8.58 105.79-4.231 41.328-16.5 83.753-44.898 115.18-22.396 25.318-53.491 41.421-85.737 50.358-27.407 8.527-55.012 16.5-81.942 26.481-26.521 9.559-53.081 19.025-79.391 29.139-31.161 12.441-61.477 27.063-93.471 37.349-38.182 12.031-77.447 21.259-117.43 24.472-49.353 5.368-99.129 1.732-148.2-4.667-14.9-2.499-29.813-4.971-44.594-8.131-15.204-2.591-29.641-8.17-44.382-12.52-13.776-4.429-27.949-7.946-40.905-14.569-20.082-8.911-39.451-19.593-57.008-32.854-19.091-14.146-35.18-31.783-52.063-48.388-31.148-31.902-60.802-65.853-83.317-104.52-8.633-16.328-18.39-32.47-22.951-50.53 3.543-2.631 5.989-6.28 7.364-10.444 12.771 3.768 19.699 15.852 26.693 26.164 13.961 21.761 29.469 42.505 46.378 62.058 12.52 13.882 24.763 28.121 38.829 40.482 25.675 24.088 52.949 46.749 83 65.192 6.544-4.998 14.001-9.083 22.303-10.074 11.78-1.547 24.168-2.75 35.696 0.859 12.19 4.561 23.202 13.194 29.429 24.776 4.812 8.805 5.143 19.064 5.738 28.848 7.179 1.93 14.45 3.477 21.814 4.495 5.645-6.809 12.745-12.89 21.629-14.754 13.075-3.741 26.256 1.705 39.438 1.375 12.851-0.225 25.529-3.12 38.406-2.724 13.684-0.013 26.851 4.112 40.337 5.817 12.705 1.679 25.582-2.948 38.182 0.212 7.496 1.877 13.155 9.506 21.484 8.025 27.922-3.57 56.082-6.24 83.436-13.194 22.621-6.042 44.699-14.106 66.038-23.731 8.263-3.596 17.055-6.914 23.202-13.842 4.773-5.368 11.291-9.043 15.415-14.953 2.909-7.311 1.468-15.719 5.037-22.845 4.35-8.673 12.718-16.142 22.779-16.632 11.158-0.806 23.004-0.212 33.29-5.368 6.531-4.323 10.59-11.687 17.795-15.151 7.245-4.27 15.971-2.909 23.797-5.05 2.525-5.328 3.305-11.344 6.148-16.526 2.776-4.984 7.033-8.977 11.766-12.071 8.779-5.658 18.364-9.889 27.592-14.741 5.103-2.552 7.047-8.276 9.585-12.983 4.812-9.215 9.043-19.395 17.861-25.569 9.307-6.531 15.164-17.372 26.058-21.695 8.303-4.389 17.874-2.565 26.798-3.755 2.71-0.291 3.874-3.107 5.156-5.116 11.158-21.312 9.81-46.418 18.866-68.417 4.829-12.258 14.93-22.068 27.04-27.105z" fill="#A52430" stroke="#A52430"/>
 <path d="m269.4 1146.9c11.092 0.542 20.955 6.068 30.804 10.63 12.494 6.346 25.423 12.692 35.458 22.713 3.953 3.662 5.777 9.783 3.398 14.807-3.332 5.156-10.92 5.963-15.984 2.962-9.678-5.315-17.253-13.512-25.503-20.691-7.575-6.518-14.318-13.895-21.444-20.876-2.869-2.71-4.865-6.134-6.729-9.545z" fill="#A52430" stroke="#A52430"/>
 <path d="m533.45 1151.5c4.786-1.917 12.851-1.468 13.816 4.852 1.851 8.541-4.733 15.574-10.788 20.558-5.685 4.389-10.378 9.982-16.314 14.04-5.302 3.12-13.234 4.852-18.073 0.026-3.08-7.589 0.397-15.931 6.002-21.299 7.363-7.336 15.877-13.854 25.357-18.177z" fill="#ED4035" stroke="#ED4035"/>
 <path d="m849 1240.6c30.209-1.93 59.93-8.078 89.98-11.37-11.965 4.297-24.432 7.047-36.886 9.479-36.542 7.919-74.935 10.365-111.64 2.3 19.501-0.343 39.028 0.437 58.542-0.409z" fill="#A62430" stroke="#A62430"/>
 <path d="m2151.2 1243.3c6.24-3.504 12.48-7.02 18.668-10.616 0.225 17.227 0.489 34.466 0.806 51.693 0.727 15.376-0.608 30.752-1.441 46.088-1.454 17.954-2.552 36.198-7.972 53.491-5.156-2.142-6.716-7.43-9.413-11.714-4.892-3.384-11.105-5.949-13.049-12.15-0.079-6.24 0.026-12.507 0.74-18.694 1.494-13.34 10.101-24.881 10.444-38.446 0.529-11.396-4.376-22.079-5.13-33.33-0.554-9.24 4.007-17.636 6.347-26.322z" fill="#ED4035" stroke="#ED4035"/>
 <path d="m390.66 1239.9c2.71-1.177 6.637-1.362 8.501 1.375 0.423 1.838 0.423 3.807-0.013 5.685-1.891 2.79-5.791 2.168-8.62 1.6-2.234-2.116-3.305-7.285 0.132-8.66z" fill="#A62430" stroke="#A62430"/>
 <path d="m286.69 1241.8c5.923 2.644 11.581 5.87 17.504 8.541 1.97 7.721 3.57 15.587 3.94 23.586-0.925 3.861-2.79 7.483-5.011 10.788-1.811 2.604-4.971 3.715-7.139 5.976-1.943 2.181-3.08 4.918-4.046 7.668-3.78-18.602-4.679-37.64-5.248-56.559z" fill="#ED4035" stroke="#ED4035"/>
 <path d="m2120.4 1257.7c10.537-4.204 20.598-9.493 30.831-14.384-2.34 8.686-6.901 17.081-6.346 26.322 0.753 11.251 5.658 21.933 5.13 33.33-0.344 13.564-8.95 25.106-10.444 38.446-0.714 6.188-0.82 12.454-0.74 18.694-5.725-7.668-9.135-16.698-12.956-25.37-6.068-14.305-7.245-31.294-0.278-45.493 1.692-3.993 4.76-7.88 4.032-12.454-0.331-3.173-2.829-6.346-6.214-6.253-6.743-0.37-12.732 3.292-18.734 5.777-23.242 10.259-44.938 23.533-66.844 36.278-2.314 1.626-5.077 0.489-7.523 0 6.677-11.489 13.446-22.925 19.302-34.85 24.167-4.324 48.097-10.538 70.784-20.043z" fill="#A52430" stroke="#A52430"/>
 <path d="m304.2 1250.4c3.834 1.864 7.589 3.887 11.37 5.857-2.393 5.936-4.469 12.018-7.43 17.729-0.371-7.999-1.97-15.865-3.94-23.586z" fill="#A52430" stroke="#A52430"/>
 <path d="m1205.4 1282c0.278-4.059 2.856-7.139 5.526-9.942 1.084 0.212 3.265 0.635 4.35 0.846-0.992 2.023-1.891 4.112-3.16 6.002-1.837 1.719-4.468 2.155-6.716 3.094z" fill="#A72430" stroke="#A72430"/>
 <path d="m1136.4 1318.2c3.953-1.692 11.33-1.983 12.348 3.411-1.507 5.05-5.672 9.162-9.863 12.256-4.297 3.146-12.11 0.198-11.211-5.685 1.216-4.376 4.945-7.721 8.726-9.982z" fill="#A52430" stroke="#A52430"/>
 <path d="m435.06 1399c6.386 6.121 12.203 12.798 18.443 19.078 0.992 1.137 2.261 2.195 2.684 3.755 1.692 13.3 9.678 24.921 10.431 38.406 0.357 4.958 0.489 9.955 0.397 14.953-1.97 6.518-8.461 9.162-13.512 12.758-2.367 4.429-4.231 9.36-9.175 11.621-5.606-16.433-6.333-33.951-7.761-51.085-0.82-16.487-2.406-33-1.507-49.486z" fill="#ED4035" stroke="#ED4035"/>
 <path d="m980.3 1401.4c5.91-1.19 12.917-2.023 18.099 1.798 4.707 3.411 4.905 10.22 2.935 15.217-2.961 6.835-9.506 11.119-15.799 14.569-8.818 4.68-18.02 9.506-28.173 10.14-8.316 0.502-17.491 0.449-24.511-4.667-6.108-4.165-7.959-14.133-2.155-19.329 5.566-4.535 12.851-5.976 19.487-8.276 10.127-2.842 19.99-6.583 30.117-9.452z" fill="#A52430" stroke="#A52430"/>
 <path d="m456.18 1421.8c6.227 4.297 10.973 10.286 16.486 15.415 2.909 2.816 6.121 5.368 8.527 8.673-3.371 10.259-7.919 20.4-14.186 29.271 0.093-4.997-0.04-9.995-0.397-14.953-0.753-13.485-8.738-25.106-10.43-38.406z" fill="#A52430" stroke="#A52430"/>
</svg>
